<svg width="21" height="21" viewBox="0 0 21 21" fill="none" xmlns="http://www.w3.org/2000/svg">
<path d="M10.2751 19.75C15.5357 19.75 19.8003 15.4967 19.8003 10.25C19.8003 5.00329 15.5357 0.75 10.2751 0.75C5.01455 0.75 0.75 5.00329 0.75 10.25C0.75 15.4967 5.01455 19.75 10.2751 19.75Z" stroke="#E8A712" stroke-width="1.5" stroke-miterlimit="10" stroke-linejoin="round"/>
<path d="M2.02002 5.8165H18.5303" stroke="#E8A712" stroke-width="1.5" stroke-miterlimit="10" stroke-linejoin="round"/>
<path d="M2.02002 14.6835H18.5303" stroke="#E8A712" stroke-width="1.5" stroke-miterlimit="10" stroke-linejoin="round"/>
<path d="M10.2751 0.75C10.2751 0.75 5.83008 3.91667 5.83008 10.25C5.83008 16.5833 10.2751 19.75 10.2751 19.75" stroke="#E8A712" stroke-width="1.5" stroke-miterlimit="10" stroke-linejoin="round"/>
<path d="M10.2754 0.75C10.2754 0.75 14.7205 3.91667 14.7205 10.25C14.7205 16.5833 10.2754 19.75 10.2754 19.75" stroke="#E8A712" stroke-width="1.5" stroke-miterlimit="10" stroke-linejoin="round"/>
</svg>
