<svg width="45" height="45" viewBox="0 0 45 45" fill="none" xmlns="http://www.w3.org/2000/svg">
<g filter="url(#filter0_d_2343_775)">
<rect x="7.1001" y="7.1001" width="30" height="30" rx="15" fill="white"/>
<g clip-path="url(#clip0_2343_775)">
<path d="M18.6711 15.7298C19.4331 16.2851 20.0265 17.0431 20.5331 17.7684L20.8278 18.1978L21.1058 18.6078C21.2449 18.8109 21.3043 19.0581 21.2728 19.3023C21.2414 19.5465 21.1212 19.7705 20.9351 19.9318L19.6345 20.8978C19.5716 20.9431 19.5274 21.0098 19.51 21.0853C19.4926 21.1608 19.5032 21.2401 19.5398 21.3084C19.8345 21.8438 20.3585 22.6411 20.9585 23.2411C21.5591 23.8411 22.3938 24.3998 22.9665 24.7278C23.0383 24.7681 23.1228 24.7793 23.2026 24.7592C23.2825 24.7392 23.3516 24.6892 23.3958 24.6198L24.2425 23.3311C24.3981 23.1243 24.6278 22.9858 24.8833 22.9445C25.1388 22.9033 25.4003 22.9625 25.6131 23.1098L26.0551 23.4158C26.8811 23.9891 27.7685 24.6404 28.4471 25.5091C28.5548 25.6476 28.6232 25.8125 28.6454 25.9865C28.6676 26.1606 28.6426 26.3373 28.5731 26.4984C28.0151 27.8004 26.6031 28.9091 25.1345 28.8551L24.9345 28.8438L24.7791 28.8304L24.6071 28.8104L24.4198 28.7851L24.2165 28.7518C24.1809 28.7453 24.1453 28.7387 24.1098 28.7318L23.8858 28.6838C23.8466 28.6751 23.8075 28.6663 23.7685 28.6571L23.5245 28.5944L23.2678 28.5211L22.9998 28.4344C21.7691 28.0171 20.2071 27.1971 18.6045 25.5944C17.0025 23.9924 16.1825 22.4304 15.7651 21.1998L15.6785 20.9318L15.6051 20.6751L15.5425 20.4311L15.4905 20.2004C15.4754 20.1282 15.4614 20.0557 15.4485 19.9831L15.4151 19.7798L15.3885 19.5924L15.3691 19.4204L15.3558 19.2651L15.3451 19.0651C15.2911 17.6011 16.4118 16.1791 17.7078 15.6238C17.8638 15.5564 18.0346 15.5308 18.2035 15.5493C18.3724 15.5679 18.5335 15.6301 18.6711 15.7298ZM24.0945 18.1264L24.1718 18.1351C24.6571 18.2207 25.1028 18.4577 25.4451 18.8122C25.7873 19.1667 26.0086 19.6204 26.0771 20.1084C26.1016 20.2772 26.0604 20.4489 25.9621 20.5883C25.8637 20.7276 25.7158 20.824 25.5485 20.8576C25.3813 20.8911 25.2076 20.8593 25.0631 20.7687C24.9187 20.6781 24.8144 20.5356 24.7718 20.3704L24.7565 20.2938C24.7296 20.1025 24.648 19.9231 24.5214 19.7772C24.3948 19.6313 24.2287 19.5252 24.0431 19.4718L23.9398 19.4484C23.7724 19.4187 23.6227 19.3262 23.5212 19.1898C23.4197 19.0534 23.3742 18.8834 23.394 18.7145C23.4138 18.5457 23.4973 18.3907 23.6275 18.2814C23.7577 18.1721 23.9247 18.1166 24.0945 18.1264ZM24.0998 16.0998C25.1607 16.0998 26.1781 16.5212 26.9282 17.2713C27.6784 18.0215 28.0998 19.0389 28.0998 20.0998C28.0996 20.2697 28.0346 20.4331 27.9179 20.5567C27.8013 20.6802 27.6418 20.7546 27.4722 20.7645C27.3026 20.7745 27.1356 20.7193 27.0052 20.6102C26.8749 20.5012 26.7912 20.3465 26.7711 20.1778L26.7665 20.0998C26.7667 19.4227 26.5093 18.7709 26.0465 18.2768C25.5836 17.7826 24.9501 17.4831 24.2745 17.4391L24.0998 17.4331C23.923 17.4331 23.7534 17.3628 23.6284 17.2378C23.5034 17.1128 23.4331 16.9432 23.4331 16.7664C23.4331 16.5896 23.5034 16.42 23.6284 16.295C23.7534 16.17 23.923 16.0998 24.0998 16.0998Z" fill="#026688"/>
</g>
</g>
<defs>
<filter id="filter0_d_2343_775" x="9.77516e-05" y="9.77516e-05" width="44.2" height="44.2" filterUnits="userSpaceOnUse" color-interpolation-filters="sRGB">
<feFlood flood-opacity="0" result="BackgroundImageFix"/>
<feColorMatrix in="SourceAlpha" type="matrix" values="0 0 0 0 0 0 0 0 0 0 0 0 0 0 0 0 0 0 127 0" result="hardAlpha"/>
<feOffset/>
<feGaussianBlur stdDeviation="3.55"/>
<feComposite in2="hardAlpha" operator="out"/>
<feColorMatrix type="matrix" values="0 0 0 0 0.790179 0 0 0 0 0.90605 0 0 0 0 0.914664 0 0 0 1 0"/>
<feBlend mode="normal" in2="BackgroundImageFix" result="effect1_dropShadow_2343_775"/>
<feBlend mode="normal" in="SourceGraphic" in2="effect1_dropShadow_2343_775" result="shape"/>
</filter>
<clipPath id="clip0_2343_775">
<rect width="16" height="16" fill="white" transform="translate(14.1001 14.1001)"/>
</clipPath>
</defs>
</svg>
