<svg width="17" height="18" viewBox="0 0 17 18" fill="none" xmlns="http://www.w3.org/2000/svg">
<path d="M2.24216 1.05567C2.06936 1.25992 2.02852 1.57837 2.0311 1.92354C2.05984 5.35536 3.17285 8.60307 5.06003 11.2489C6.9472 13.8947 9.73357 16.0991 12.8855 17.1273C13.2079 17.236 13.5221 17.3096 13.7738 17.2117C13.8603 17.1771 13.9792 17.1069 14.0321 16.9795L14.9627 14.6972C15.0397 14.499 15.0051 14.2775 14.8585 14.08C14.7909 13.9889 13.0978 13.0349 12.3204 12.4803C12.0025 12.2506 11.5712 12.2814 11.3563 12.5402L10.9277 13.0513C10.7797 13.2255 10.5668 13.3359 10.3401 13.3564C9.46884 13.4301 7.29363 10.6267 6.82864 9.97635C6.34772 9.29664 4.33699 6.25392 4.68693 5.45396C4.77921 5.24454 4.9527 5.08095 5.16071 5.00361C5.7059 4.80046 5.55585 4.85259 5.7781 4.7706C6.10204 4.64283 6.26177 4.25411 6.15613 3.87339C5.9206 3.04751 5.8286 2.30375 5.71929 1.44925C5.67329 1.07737 5.3722 0.73529 5.0177 0.750362C5.0177 0.750362 4.97695 0.751084 2.53889 0.883307C2.40902 0.891103 2.30803 0.977545 2.24216 1.05567Z" stroke="#E8A712" stroke-width="1.5" stroke-miterlimit="10"/>
<path d="M9.41461 2.7413C9.00603 2.67331 8.61925 2.94936 8.55072 3.35787C8.48219 3.76639 8.75785 4.15267 9.16644 4.22066L9.29053 3.48098L9.41461 2.7413ZM12.4604 8.83173C12.3918 9.24023 12.6674 9.62655 13.076 9.69458C13.4846 9.76262 13.8714 9.48661 13.94 9.07811L13.2002 8.95491L12.4604 8.83173ZM9.29053 3.48098L9.16644 4.22066C11.355 4.58486 12.8259 6.65419 12.4604 8.83173L13.2002 8.95491L13.94 9.07811C14.4426 6.08409 12.421 3.24159 9.41461 2.7413L9.29053 3.48098Z" fill="#E8A712"/>
<path d="M9.74524 0.756181C9.33666 0.688158 8.94986 0.964177 8.88129 1.37269C8.81273 1.7812 9.08837 2.1675 9.49695 2.23553L9.62109 1.49585L9.74524 0.756181ZM14.4425 9.16542C14.3732 9.5738 14.6481 9.96062 15.0566 10.0294C15.465 10.0982 15.8524 9.82288 15.9217 9.4145L15.1821 9.28996L14.4425 9.16542ZM9.62109 1.49585L9.49695 2.23553C12.7837 2.78273 14.9987 5.88925 14.4425 9.16542L15.1821 9.28996L15.9217 9.4145C16.617 5.31793 13.8477 1.43919 9.74524 0.756181L9.62109 1.49585Z" fill="#E8A712"/>
</svg>
