<svg width="50" height="50" viewBox="0 0 50 50" fill="none" xmlns="http://www.w3.org/2000/svg">
<rect width="50" height="50" rx="25" fill="url(#paint0_linear_1387_9371)"/>
<path d="M17.5005 27.5002C17.3112 27.5008 17.1257 27.4477 16.9654 27.3471C16.8052 27.2465 16.6767 27.1025 16.595 26.9318C16.5133 26.7611 16.4818 26.5707 16.504 26.3828C16.5262 26.1949 16.6013 26.0171 16.7205 25.8702L26.6205 15.6702C26.6947 15.5844 26.7959 15.5265 26.9075 15.5059C27.019 15.4853 27.1342 15.5032 27.2342 15.5567C27.3342 15.6102 27.4131 15.6961 27.4578 15.8003C27.5026 15.9045 27.5106 16.0208 27.4805 16.1302L25.5605 22.1502C25.5039 22.3017 25.4849 22.4647 25.5051 22.6252C25.5253 22.7857 25.5841 22.9388 25.6766 23.0716C25.769 23.2043 25.8923 23.3127 26.0358 23.3873C26.1793 23.462 26.3387 23.5007 26.5005 23.5002H33.5005C33.6897 23.4995 33.8752 23.5526 34.0355 23.6532C34.1958 23.7538 34.3242 23.8978 34.4059 24.0685C34.4876 24.2392 34.5192 24.4296 34.497 24.6175C34.4748 24.8054 34.3997 24.9832 34.2805 25.1302L24.3805 35.3302C24.3062 35.4159 24.205 35.4738 24.0935 35.4944C23.982 35.5151 23.8668 35.4972 23.7668 35.4437C23.6667 35.3902 23.5879 35.3043 23.5431 35.2001C23.4984 35.0958 23.4904 34.9795 23.5205 34.8702L25.4405 28.8502C25.4971 28.6986 25.5161 28.5356 25.4959 28.3752C25.4757 28.2147 25.4168 28.0615 25.3244 27.9287C25.232 27.796 25.1087 27.6876 24.9652 27.613C24.8217 27.5384 24.6622 27.4996 24.5005 27.5002H17.5005Z" stroke="white" stroke-width="2" stroke-linecap="round" stroke-linejoin="round"/>
<defs>
<linearGradient id="paint0_linear_1387_9371" x1="-17.5439" y1="-32.0175" x2="28.9434" y2="50" gradientUnits="userSpaceOnUse">
<stop stop-color="#073C81"/>
<stop offset="1" stop-color="#00788B"/>
</linearGradient>
</defs>
</svg>
