<svg width="73" height="73" viewBox="0 0 73 73" fill="none" xmlns="http://www.w3.org/2000/svg">
<g filter="url(#filter0_d_2343_759)">
<rect x="14.7002" y="14.7002" width="43" height="43" rx="21.5" fill="white" shape-rendering="crispEdges"/>
<path d="M30.2877 46.9502H25.7189V32.5721H30.2877V46.9502ZM28.0033 30.5564C26.5252 30.5564 25.4502 29.4814 25.4502 28.0033C25.4502 26.5252 26.6596 25.4502 28.0033 25.4502C29.4814 25.4502 30.5564 26.5252 30.5564 28.0033C30.5564 29.4814 29.4814 30.5564 28.0033 30.5564ZM46.9502 46.9502H42.3815V39.1564C42.3815 36.8721 41.4408 36.2002 40.0971 36.2002C38.7533 36.2002 37.4096 37.2752 37.4096 39.2908V46.9502H32.8408V32.5721H37.1408V34.5877C37.5439 33.6471 39.1564 32.1689 41.4408 32.1689C43.9939 32.1689 46.6814 33.6471 46.6814 38.0814V46.9502H46.9502Z" fill="#064582"/>
</g>
<defs>
<filter id="filter0_d_2343_759" x="0.000195503" y="0.000195503" width="72.4" height="72.4" filterUnits="userSpaceOnUse" color-interpolation-filters="sRGB">
<feFlood flood-opacity="0" result="BackgroundImageFix"/>
<feColorMatrix in="SourceAlpha" type="matrix" values="0 0 0 0 0 0 0 0 0 0 0 0 0 0 0 0 0 0 127 0" result="hardAlpha"/>
<feOffset/>
<feGaussianBlur stdDeviation="7.35"/>
<feComposite in2="hardAlpha" operator="out"/>
<feColorMatrix type="matrix" values="0 0 0 0 0.790179 0 0 0 0 0.90605 0 0 0 0 0.914664 0 0 0 0.62 0"/>
<feBlend mode="normal" in2="BackgroundImageFix" result="effect1_dropShadow_2343_759"/>
<feBlend mode="normal" in="SourceGraphic" in2="effect1_dropShadow_2343_759" result="shape"/>
</filter>
</defs>
</svg>
