<svg width="45" height="45" viewBox="0 0 45 45" fill="none" xmlns="http://www.w3.org/2000/svg">
<g filter="url(#filter0_d_2343_783)">
<rect x="7.1001" y="7.1001" width="30" height="30" rx="15" fill="white"/>
<path d="M13.1909 19.2744V26.5546C13.1909 27.2297 13.4591 27.8772 13.9365 28.3546C14.4139 28.832 15.0613 29.1002 15.7364 29.1002H28.4641C29.1392 29.1002 29.7867 28.832 30.2641 28.3546C30.7414 27.8772 31.0096 27.2297 31.0096 26.5546V19.2744L23.4341 23.9353C23.033 24.1821 22.5712 24.3127 22.1003 24.3127C21.6293 24.3127 21.1676 24.1821 20.7664 23.9353L13.1909 19.2744Z" fill="#026688"/>
<path d="M31.0096 17.7792V17.6451C31.0096 16.97 30.7414 16.3226 30.2641 15.8452C29.7867 15.3678 29.1392 15.0996 28.4641 15.0996H15.7364C15.0613 15.0996 14.4139 15.3678 13.9365 15.8452C13.4591 16.3226 13.1909 16.97 13.1909 17.6451V17.7792L21.4333 22.8516C21.6339 22.975 21.8648 23.0403 22.1003 23.0403C22.3358 23.0403 22.5666 22.975 22.7672 22.8516L31.0096 17.7792Z" fill="#026688"/>
</g>
<defs>
<filter id="filter0_d_2343_783" x="9.77516e-05" y="9.77516e-05" width="44.2" height="44.2" filterUnits="userSpaceOnUse" color-interpolation-filters="sRGB">
<feFlood flood-opacity="0" result="BackgroundImageFix"/>
<feColorMatrix in="SourceAlpha" type="matrix" values="0 0 0 0 0 0 0 0 0 0 0 0 0 0 0 0 0 0 127 0" result="hardAlpha"/>
<feOffset/>
<feGaussianBlur stdDeviation="3.55"/>
<feComposite in2="hardAlpha" operator="out"/>
<feColorMatrix type="matrix" values="0 0 0 0 0.790179 0 0 0 0 0.90605 0 0 0 0 0.914664 0 0 0 1 0"/>
<feBlend mode="normal" in2="BackgroundImageFix" result="effect1_dropShadow_2343_783"/>
<feBlend mode="normal" in="SourceGraphic" in2="effect1_dropShadow_2343_783" result="shape"/>
</filter>
</defs>
</svg>
