<svg width="60" height="60" viewBox="0 0 60 60" fill="none" xmlns="http://www.w3.org/2000/svg">
<path d="M54 21H46.5C44.019 21 42 18.981 42 16.5V6H18V54H54V21Z" fill="white"/>
<path d="M54 18.0001V17.1211L45 8.12109V16.5001C45 17.3251 45.675 18.0001 46.5 18.0001H54Z" fill="white"/>
<path opacity="0.64" fill-rule="evenodd" clip-rule="evenodd" d="M56.121 15L45 3.879C44.4375 3.31635 43.6746 3.00017 42.879 3H18C16.3431 3 15 4.34315 15 6V54C15 55.6569 16.3431 57 18 57H54C55.6569 57 57 55.6569 57 54V17.121C56.9998 16.3254 56.6836 15.5625 56.121 15ZM54 17.121V18H46.5C45.6723 17.9984 45.0016 17.3277 45 16.5V8.121L54 17.121ZM18 6.6V53.4C18 53.7314 18.2686 54 18.6 54H53.4C53.7314 54 54 53.7314 54 53.4V21H46.5C44.0147 21 42 18.9853 42 16.5V6H18.6C18.27 6 18 6.27 18 6.6Z" fill="#959CA2"/>
<path d="M47.85 33H42L39 30L36 33V40.467C37.257 41.415 38.805 42 40.5 42C42.7524 42.0005 44.8858 40.9886 46.3105 39.244C47.7353 37.4994 48.3005 35.2069 47.85 33Z" fill="#0076BF"/>
<path d="M40.5 27C38.8734 27.0034 37.2927 27.5398 36 28.527V33H42V27.15C41.5063 27.05 41.0038 26.9997 40.5 27V27Z" fill="#EBF6F7"/>
<path d="M45 30H51C50.3816 26.9792 48.0208 24.6184 45 24V30H45Z" fill="#EBF6F7"/>
<path d="M6 48H30C31.6569 48 33 46.6569 33 45V21C33 19.3431 31.6569 18 30 18H6C4.34315 18 3 19.3431 3 21V45C3 46.6569 4.34315 48 6 48Z" fill="#0076BF"/>
<path fill-rule="evenodd" clip-rule="evenodd" d="M22.5151 25.443C21.5281 24.48 20.1001 24 18.2401 24H12.0361V42H15.0001V35.637H18.0451C19.1373 35.6598 20.2166 35.3983 21.1771 34.878C22.0801 34.371 22.7731 33.663 23.2651 32.748C23.7571 31.836 24.0001 30.792 24.0001 29.622C24.0001 27.801 23.5051 26.406 22.5151 25.443ZM17.6971 33H15.0001V26.964H17.7931C19.0771 26.964 21.0001 26.976 21.0001 30C21.0001 32.694 19.2181 33 17.6971 33Z" fill="#F1F1F1"/>
</svg>
