<svg width="229" height="287" viewBox="0 0 229 287" fill="none" xmlns="http://www.w3.org/2000/svg">
<path d="M158.571 29.7335C147.887 25.8677 136.48 23.7523 125.519 24.3448C100.003 25.7243 72.4891 43.4931 71.0725 71.0617C70.6125 80.017 66.1934 88.5171 73.0273 94.8913C76.7247 98.34 88.226 103.676 93.2819 103.77C106.719 104.022 118.482 95.8826 116.218 81.4544C115.493 76.8342 114.033 72.3309 113.644 67.6708C113.255 63.0107 114.115 57.9444 117.373 54.5885C123.769 48.0014 136.677 49.7456 144.392 52.7341C153.498 56.261 160.232 63.7571 162.429 73.3162C165.167 85.2292 162.552 97.6206 157.661 108.601C152.427 120.349 144.07 127.783 133.157 134.361C123.761 140.025 113.813 145.133 106.133 152.967C99.0813 160.158 94.4035 169.233 90.8985 178.586C90.2189 180.399 75.0711 194.396 73.2552 199.665C72.9991 200.409 82.4201 206.5 83.1594 206.77C87.0185 208.181 97.9474 212.177 101.97 213.647C102.798 213.949 103.716 213.527 104.019 212.699C113.33 187.235 129.796 165.635 155.763 155.491C165.212 151.799 174.808 149.464 183.224 143.567C195.219 135.16 203.083 125.496 206.836 111.221C210.263 98.183 210.566 84.0355 205.777 71.2907C200.63 57.593 189.968 46.4101 177.471 38.7981C171.644 35.2492 165.249 32.149 158.571 29.7335Z" fill="url(#paint0_linear_194_3222)"/>
<path d="M104.225 246.672C100.075 258.429 89.8875 266.529 78.1315 262.38C75.5917 261.484 66.9458 258.459 64.9757 256.846C57.8251 250.993 60.0179 244.686 63.2706 235.47C67.4201 223.713 75.4703 213.552 87.2271 217.701C98.9831 221.85 108.374 234.915 104.225 246.672Z" fill="url(#paint1_linear_194_3222)"/>
<path d="M149.337 23.4614C138.652 19.5956 127.245 17.4802 116.284 18.0727C90.768 19.4522 63.2543 37.221 61.8377 64.7896C61.3776 73.745 63.3273 85.9109 70.1613 92.2851C73.8587 95.7338 78.9914 97.4031 84.047 97.498C97.484 97.7498 109.247 89.6105 106.983 75.1823C106.258 70.5621 104.798 66.0588 104.409 61.3987C104.02 56.7377 104.88 51.6723 108.138 48.3164C114.534 41.7293 127.443 43.4735 135.157 46.462C144.264 49.9889 150.997 57.485 153.194 67.0441C155.932 78.9571 153.317 91.3485 148.426 102.328C143.192 114.077 134.835 121.511 123.923 128.089C114.526 133.753 104.578 138.861 96.8979 146.695C89.8464 153.886 85.1686 162.961 81.6637 172.314C80.984 174.127 74.872 193.403 73.0561 198.672C72.8 199.417 73.1855 200.227 73.9249 200.498C77.7839 201.908 88.7128 205.904 92.7358 207.374C93.5633 207.676 94.4817 207.254 94.7842 206.426C104.095 180.962 120.562 159.362 146.529 149.218C155.977 145.526 165.574 143.192 173.99 137.294C185.984 128.887 193.849 119.223 197.602 104.948C201.029 91.9101 201.331 77.7625 196.543 65.0177C191.395 51.32 180.733 40.1371 168.237 32.5252C162.409 28.9771 156.014 25.8769 149.337 23.4614Z" fill="url(#paint2_linear_194_3222)"/>
<path d="M67.8096 257.997C79.5659 262.147 92.46 255.98 96.6093 244.223C100.759 232.467 94.5917 219.573 82.8354 215.424C71.079 211.275 58.1849 217.441 54.0357 229.198C49.8864 240.954 56.0532 253.848 67.8096 257.997Z" fill="url(#paint3_linear_194_3222)"/>
<path opacity="0.63" d="M69.7468 64.8311C69.6212 64.7867 69.5388 64.66 69.5559 64.5228C70.4409 57.2607 73.9452 46.6355 85.6084 37.2573C96.9917 28.1048 109.928 23.8572 124.056 24.6338C139.159 25.4642 155.111 32.0577 171.47 44.2317C171.599 44.3273 171.626 44.5086 171.53 44.6371C171.434 44.7655 171.252 44.792 171.125 44.697C139.697 21.3084 109.455 18.827 85.9713 37.7099C74.4597 46.9651 71.0033 57.4383 70.1312 64.594C70.112 64.7532 69.9672 64.8652 69.8088 64.8463C69.7871 64.8434 69.7662 64.8379 69.7468 64.8311Z" fill="white"/>
<path opacity="0.63" d="M70.3996 77.2489C70.3153 77.2192 70.2463 77.1512 70.2182 77.0587C70.1845 76.9473 69.3992 74.2863 69.2893 70.05C69.285 69.8901 69.4116 69.7574 69.5715 69.7531C69.7306 69.7486 69.8644 69.8745 69.8684 70.0353C69.9755 74.188 70.7645 76.8655 70.7723 76.8919C70.818 77.0446 70.7314 77.2067 70.5778 77.2521C70.5178 77.2717 70.4553 77.2686 70.3996 77.2489Z" fill="white"/>
<path opacity="0.63" d="M87.3147 225.427C87.2733 225.412 87.2344 225.388 87.2019 225.354C85.4112 223.477 83.2541 222.085 80.791 221.216C80.6401 221.163 80.5609 220.997 80.6142 220.846C80.6675 220.695 80.833 220.616 80.984 220.669C83.5339 221.569 85.7674 223.011 87.6212 224.954C87.7312 225.069 87.7271 225.253 87.6114 225.363C87.5297 225.441 87.4142 225.462 87.3147 225.427Z" fill="white"/>
<path opacity="0.63" d="M61.7953 246.946C61.743 246.927 61.6952 246.893 61.6593 246.845C58.2868 242.29 57.3979 236.385 59.2815 231.048C61.3696 225.132 66.5225 220.858 72.7275 219.895C72.8853 219.87 73.0339 219.978 73.0585 220.137C73.0832 220.295 72.9751 220.443 72.8165 220.468C66.8214 221.398 61.8445 225.525 59.8273 231.241C58.008 236.396 58.8667 242.101 62.1242 246.5C62.2193 246.629 62.1923 246.81 62.0636 246.906C61.9848 246.965 61.883 246.977 61.7953 246.946Z" fill="white"/>
<defs>
<linearGradient id="paint0_linear_194_3222" x1="502.847" y1="-31.8416" x2="-62.3107" y2="185.138" gradientUnits="userSpaceOnUse">
<stop stop-color="#92B5B8"/>
<stop offset="1" stop-color="#033C8D"/>
</linearGradient>
<linearGradient id="paint1_linear_194_3222" x1="539.976" y1="64.8656" x2="-25.1825" y2="281.846" gradientUnits="userSpaceOnUse">
<stop stop-color="#DA9C0C"/>
<stop offset="1" stop-color="#E8A712"/>
</linearGradient>
<linearGradient id="paint2_linear_194_3222" x1="-27.1488" y1="177.509" x2="490.971" y2="-88.7731" gradientUnits="userSpaceOnUse">
<stop stop-color="#92B5B8"/>
<stop offset="1" stop-color="#3299C7"/>
</linearGradient>
<linearGradient id="paint3_linear_194_3222" x1="136.022" y1="203.868" x2="17.1624" y2="268.178" gradientUnits="userSpaceOnUse">
<stop stop-color="#0376B9"/>
<stop offset="1" stop-color="#C4E7EA"/>
</linearGradient>
</defs>
</svg>
