<svg width="115" height="139" viewBox="0 0 115 139" fill="none" xmlns="http://www.w3.org/2000/svg">
<path d="M81.5965 16.3193C76.5823 14.1745 71.1743 12.8488 65.9055 12.8328C53.6407 12.7957 39.9702 20.5575 38.5371 33.7293C38.0716 38.008 35.7215 41.9602 38.8218 45.2017C40.4992 46.9554 45.8645 49.8271 48.2847 50.0105C54.7166 50.4988 60.5759 46.9204 59.8858 39.9446C59.665 37.7108 59.0884 35.5129 59.0295 33.2692C58.9706 31.0255 59.5215 28.6213 61.1745 27.1023C64.4197 24.1209 70.5575 25.3099 74.1726 26.953C78.4397 28.8922 81.4614 32.6685 82.2523 37.3092C83.2384 43.0927 81.6464 48.959 79.0022 54.0867C76.1728 59.5734 71.9649 62.9069 66.5556 65.7605C61.8981 68.2175 56.9913 70.3929 53.0966 73.9366C49.5208 77.1898 47.031 81.4102 45.0956 85.7962C44.7203 86.6463 37.0786 92.9391 36.0643 95.4142C35.9212 95.7639 40.269 98.9404 40.6159 99.0902C42.4265 99.8717 47.5542 102.085 49.4417 102.9C49.83 103.068 50.2817 102.89 50.4493 102.502C55.6076 90.5544 64.0894 80.6548 76.81 76.5041C81.4385 74.9937 86.101 74.1374 90.2953 71.5415C96.273 67.8413 100.306 63.4256 102.495 56.6879C104.494 50.534 105.026 43.7629 103.08 37.5247C100.988 30.82 96.1849 25.1696 90.405 21.1801C87.7096 19.3201 84.7301 17.6595 81.5965 16.3193Z" fill="url(#paint0_linear_391_2888)"/>
<path d="M49.6185 118.787C47.3085 124.307 42.205 127.91 36.6852 125.6C35.4927 125.101 31.4324 123.415 30.5324 122.588C27.2661 119.588 28.4895 116.626 30.3003 112.298C32.6104 106.778 36.7459 102.129 42.2662 104.439C47.786 106.749 51.9285 113.267 49.6185 118.787Z" fill="url(#paint1_linear_391_2888)"/>
<path d="M77.343 13.061C72.3289 10.9162 66.9209 9.59046 61.6521 9.57448C49.3873 9.53736 35.7168 17.2992 34.2837 30.471C33.8182 34.7497 34.4196 40.6329 37.52 43.8743C39.1974 45.628 41.6113 46.5684 44.0313 46.7522C50.4632 47.2405 56.3225 43.6621 55.6324 36.6863C55.4115 34.4525 54.835 32.2546 54.7761 30.0109C54.7173 27.7668 55.2681 25.363 56.9211 23.844C60.1663 20.8626 66.3041 22.0516 69.9192 23.6947C74.1863 25.6339 77.208 29.4102 77.9989 34.0509C78.985 39.8344 77.393 45.7007 74.7488 50.8284C71.9194 56.3151 67.7115 59.6486 62.3022 62.5022C57.6447 64.9592 52.7379 67.1346 48.8432 70.6783C45.2674 73.9314 42.7776 78.1519 40.8421 82.5378C40.4669 83.388 37.0106 92.458 35.9963 94.9331C35.8532 95.2828 36.0158 95.6817 36.3626 95.8315C38.1733 96.6129 43.301 98.8267 45.1885 99.6412C45.5768 99.8088 46.0284 99.6315 46.196 99.2432C51.3544 87.2957 59.8361 77.3961 72.5567 73.2454C77.1853 71.735 81.8477 70.8787 86.0421 68.2828C92.0198 64.5826 96.0527 60.1669 98.2416 53.4292C100.241 47.2753 100.773 40.5042 98.8268 34.266C96.7349 27.5613 91.9317 21.9109 86.1518 17.9214C83.4562 16.0618 80.4767 14.4012 77.343 13.061Z" fill="url(#paint2_linear_391_2888)"/>
<path d="M31.8586 123.218C37.3786 125.528 43.726 122.925 46.036 117.405C48.3459 111.885 45.7436 105.538 40.2236 103.228C34.7036 100.918 28.3562 103.52 26.0463 109.04C23.7363 114.56 26.3386 120.908 31.8586 123.218Z" fill="url(#paint3_linear_391_2888)"/>
<path opacity="0.63" d="M38.0726 30.7074C38.0135 30.6827 37.9775 30.6197 37.9895 30.5544C38.6123 27.0987 40.5822 22.1031 46.4277 17.9283C52.1329 13.854 58.448 12.1725 65.1968 12.9312C72.4114 13.7424 79.8746 17.3384 87.3809 23.6196C87.4399 23.669 87.4479 23.7566 87.3985 23.8155C87.3492 23.8745 87.2608 23.8822 87.2027 23.8331C72.7825 11.7657 58.359 9.74917 46.5892 18.1551C40.8198 22.2751 38.8769 27.1992 38.2632 30.6043C38.2497 30.68 38.1772 30.7298 38.1018 30.7164C38.0915 30.7144 38.0817 30.7112 38.0726 30.7074Z" fill="white"/>
<path opacity="0.63" d="M38.0454 36.6757C38.0058 36.6592 37.9746 36.6247 37.9637 36.5796C37.9506 36.5253 37.6471 35.2287 37.7103 33.1957C37.7127 33.119 37.7769 33.0588 37.8537 33.0612C37.93 33.0633 37.9907 33.1274 37.9882 33.2045C37.9259 35.1974 38.2308 36.502 38.2337 36.5149C38.2515 36.5893 38.2055 36.6646 38.1307 36.6821C38.1014 36.6899 38.0716 36.6867 38.0454 36.6757Z" fill="white"/>
<path opacity="0.63" d="M42.0965 108.144C42.0771 108.136 42.0591 108.123 42.0444 108.106C41.2377 107.158 40.2421 106.431 39.0856 105.948C39.0148 105.918 38.9814 105.836 39.011 105.766C39.0407 105.695 39.1221 105.661 39.193 105.691C40.3903 106.192 41.4211 106.944 42.2563 107.925C42.3058 107.984 42.2989 108.072 42.2404 108.121C42.1991 108.157 42.1432 108.163 42.0965 108.144Z" fill="white"/>
<path opacity="0.63" d="M29.279 117.757C29.2544 117.747 29.2324 117.729 29.2166 117.705C27.7251 115.43 27.4608 112.576 28.5094 110.07C29.6718 107.292 32.258 105.385 35.2577 105.094C35.334 105.086 35.4022 105.142 35.4097 105.219C35.4172 105.295 35.3614 105.363 35.2847 105.371C32.3865 105.652 29.8887 107.494 28.7656 110.178C27.7528 112.598 28.0082 115.355 29.4488 117.553C29.4908 117.617 29.4729 117.703 29.4086 117.745C29.3692 117.772 29.3202 117.774 29.279 117.757Z" fill="white"/>
<defs>
<linearGradient id="paint0_linear_391_2888" x1="248.255" y1="-3.76704" x2="-28.5" y2="84.7441" gradientUnits="userSpaceOnUse">
<stop stop-color="#92B5B8"/>
<stop offset="1" stop-color="#033C8D"/>
</linearGradient>
<linearGradient id="paint1_linear_391_2888" x1="263.401" y1="43.5898" x2="-13.3544" y2="132.101" gradientUnits="userSpaceOnUse">
<stop stop-color="#DA9C0C"/>
<stop offset="1" stop-color="#E8A712"/>
</linearGradient>
<linearGradient id="paint2_linear_391_2888" x1="-11.4418" y1="82.0501" x2="244.122" y2="-31.3731" gradientUnits="userSpaceOnUse">
<stop stop-color="#92B5B8"/>
<stop offset="1" stop-color="#3299C7"/>
</linearGradient>
<linearGradient id="paint3_linear_391_2888" x1="66.0263" y1="99.1459" x2="7.31042" y2="126.71" gradientUnits="userSpaceOnUse">
<stop stop-color="#0376B9"/>
<stop offset="1" stop-color="#C4E7EA"/>
</linearGradient>
</defs>
</svg>
