<svg width="16" height="16" viewBox="0 0 16 16" fill="none" xmlns="http://www.w3.org/2000/svg">
<path d="M2.66699 13V2.99998C2.66699 2.55795 2.84259 2.13403 3.15515 1.82147C3.46771 1.50891 3.89163 1.33331 4.33366 1.33331H12.667C12.8438 1.33331 13.0134 1.40355 13.1384 1.52858C13.2634 1.6536 13.3337 1.82317 13.3337 1.99998V14C13.3337 14.1768 13.2634 14.3464 13.1384 14.4714C13.0134 14.5964 12.8438 14.6666 12.667 14.6666H4.33366C3.89163 14.6666 3.46771 14.4911 3.15515 14.1785C2.84259 13.8659 2.66699 13.442 2.66699 13ZM2.66699 13C2.66699 12.558 2.84259 12.134 3.15515 11.8215C3.46771 11.5089 3.89163 11.3333 4.33366 11.3333H13.3337" stroke="#00788B" stroke-linecap="round" stroke-linejoin="round"/>
<path d="M5.33301 7.33331H10.6663" stroke="#00788B" stroke-linecap="round" stroke-linejoin="round"/>
<path d="M5.33301 4.66669H9.33301" stroke="#00788B" stroke-linecap="round" stroke-linejoin="round"/>
</svg>
