<svg width="87" height="87" viewBox="0 0 87 87" fill="none" xmlns="http://www.w3.org/2000/svg">
<g filter="url(#filter0_d_1974_13104)">
<rect x="5.80078" y="4.79999" width="75" height="75" rx="37.5" fill="#C80003" fill-opacity="0.12" shape-rendering="crispEdges"/>
<path d="M62.7661 54.3045L46.7785 26.3262C46.4299 25.7111 45.9244 25.1995 45.3135 24.8435C44.7026 24.4875 44.0083 24.3 43.3012 24.3C42.5942 24.3 41.8998 24.4875 41.289 24.8435C40.6781 25.1995 40.1725 25.7111 39.8239 26.3262L23.8364 54.3045C23.484 54.9147 23.2992 55.6073 23.3008 56.3119C23.3024 57.0166 23.4902 57.7083 23.8452 58.317C24.2003 58.9257 24.71 59.4297 25.3226 59.7779C25.9352 60.1261 26.629 60.3062 27.3336 60.2998H59.3088C60.0101 60.2991 60.6988 60.1139 61.3058 59.7628C61.9129 59.4117 62.4168 58.9071 62.7672 58.2996C63.1175 57.6921 63.3018 57.0032 63.3016 56.3019C63.3014 55.6007 63.1168 54.9118 62.7661 54.3045Z" stroke="#C80003" stroke-width="2" stroke-linecap="round" stroke-linejoin="round"/>
<path d="M43.3008 36.4676V44.244" stroke="#C80003" stroke-width="2" stroke-linecap="round" stroke-linejoin="round"/>
<path d="M43.3008 52.0207H43.3202" stroke="#C80003" stroke-width="2" stroke-linecap="round" stroke-linejoin="round"/>
</g>
<defs>
<filter id="filter0_d_1974_13104" x="0.000781059" y="-1.23978e-05" width="86.6" height="86.6" filterUnits="userSpaceOnUse" color-interpolation-filters="sRGB">
<feFlood flood-opacity="0" result="BackgroundImageFix"/>
<feColorMatrix in="SourceAlpha" type="matrix" values="0 0 0 0 0 0 0 0 0 0 0 0 0 0 0 0 0 0 127 0" result="hardAlpha"/>
<feOffset dy="1"/>
<feGaussianBlur stdDeviation="2.9"/>
<feComposite in2="hardAlpha" operator="out"/>
<feColorMatrix type="matrix" values="0 0 0 0 0 0 0 0 0 0 0 0 0 0 0 0 0 0 0.07 0"/>
<feBlend mode="normal" in2="BackgroundImageFix" result="effect1_dropShadow_1974_13104"/>
<feBlend mode="normal" in="SourceGraphic" in2="effect1_dropShadow_1974_13104" result="shape"/>
</filter>
</defs>
</svg>
