<svg width="36" height="36" viewBox="0 0 36 36" fill="none" xmlns="http://www.w3.org/2000/svg">
<rect width="36" height="36" rx="18" fill="#00BD13" fill-opacity="0.1"/>
<path d="M27.8006 16C28.2573 18.2413 27.9318 20.5714 26.8785 22.6018C25.8251 24.6322 24.1075 26.24 22.0121 27.1573C19.9167 28.0746 17.5702 28.2458 15.3639 27.6424C13.1576 27.0389 11.2248 25.6974 9.88789 23.8414C8.55097 21.9854 7.89073 19.7272 8.01728 17.4434C8.14382 15.1595 9.04949 12.9881 10.5833 11.2912C12.117 9.59424 14.1862 8.47442 16.4457 8.11844C18.7052 7.76247 21.0184 8.19185 22.9996 9.33499" stroke="#00870E" stroke-width="2" stroke-linecap="round" stroke-linejoin="round"/>
<path d="M15 17L18 20L28 10" stroke="#00870E" stroke-width="2" stroke-linecap="round" stroke-linejoin="round"/>
</svg>
