<svg width="447" height="145" viewBox="0 0 447 145" fill="none" xmlns="http://www.w3.org/2000/svg">
<path d="M3.85227 12.7622C3.28977 12.7622 2.78835 12.6656 2.34801 12.4724C1.91051 12.2792 1.5625 12.0108 1.30398 11.667C1.0483 11.3204 0.909091 10.9185 0.886364 10.4611H1.96023C1.98295 10.7423 2.07955 10.9852 2.25 11.1898C2.42045 11.3915 2.64347 11.5477 2.91903 11.6585C3.1946 11.7693 3.5 11.8247 3.83523 11.8247C4.21023 11.8247 4.54261 11.7594 4.83239 11.6287C5.12216 11.498 5.34943 11.3162 5.5142 11.0832C5.67898 10.8503 5.76136 10.5804 5.76136 10.2736C5.76136 9.95254 5.68182 9.66987 5.52273 9.42555C5.36364 9.17839 5.13068 8.98521 4.82386 8.84601C4.51705 8.7068 4.14205 8.6372 3.69886 8.6372H3V7.6997H3.69886C4.04545 7.6997 4.34943 7.6372 4.6108 7.5122C4.875 7.3872 5.08097 7.21106 5.22869 6.98379C5.37926 6.75652 5.45455 6.48947 5.45455 6.18266C5.45455 5.8872 5.3892 5.6301 5.25852 5.41135C5.12784 5.1926 4.94318 5.02214 4.70455 4.89999C4.46875 4.77783 4.19034 4.71675 3.86932 4.71675C3.56818 4.71675 3.28409 4.77214 3.01705 4.88294C2.75284 4.99089 2.53693 5.14857 2.36932 5.35595C2.2017 5.5605 2.1108 5.80766 2.09659 6.09743H1.07386C1.09091 5.64004 1.22869 5.23947 1.48722 4.89572C1.74574 4.54913 2.08381 4.27925 2.50142 4.08607C2.92188 3.89288 3.38352 3.79629 3.88636 3.79629C4.42614 3.79629 4.8892 3.90567 5.27557 4.12442C5.66193 4.34033 5.95881 4.62584 6.16619 4.98095C6.37358 5.33607 6.47727 5.71959 6.47727 6.13152C6.47727 6.623 6.34801 7.04203 6.08949 7.38862C5.83381 7.73521 5.4858 7.97527 5.04545 8.10879V8.17697C5.59659 8.26788 6.02699 8.50226 6.33665 8.8801C6.64631 9.2551 6.80114 9.71959 6.80114 10.2736C6.80114 10.748 6.67188 11.1741 6.41335 11.552C6.15767 11.927 5.80824 12.2224 5.36506 12.4383C4.92188 12.6542 4.41761 12.7622 3.85227 12.7622ZM11.3906 12.7622C10.7486 12.7622 10.2017 12.5875 9.75 12.2381C9.2983 11.8858 8.95313 11.3758 8.71449 10.7082C8.47585 10.0378 8.35653 9.22811 8.35653 8.27925C8.35653 7.33607 8.47585 6.53067 8.71449 5.86305C8.95597 5.1926 9.30256 4.68124 9.75426 4.32896C10.2088 3.97385 10.7543 3.79629 11.3906 3.79629C12.027 3.79629 12.571 3.97385 13.0227 4.32896C13.4773 4.68124 13.8239 5.1926 14.0625 5.86305C14.304 6.53067 14.4247 7.33607 14.4247 8.27925C14.4247 9.22811 14.3054 10.0378 14.0668 10.7082C13.8281 11.3758 13.483 11.8858 13.0312 12.2381C12.5795 12.5875 12.0327 12.7622 11.3906 12.7622ZM11.3906 11.8247C12.027 11.8247 12.5213 11.5179 12.8736 10.9042C13.2259 10.2906 13.402 9.41561 13.402 8.27925C13.402 7.52357 13.321 6.8801 13.1591 6.34885C13 5.8176 12.7699 5.41277 12.4688 5.13436C12.1705 4.85595 11.8111 4.71675 11.3906 4.71675C10.7599 4.71675 10.267 5.02783 9.91193 5.64999C9.55682 6.2693 9.37926 7.14572 9.37926 8.27925C9.37926 9.03493 9.45881 9.67697 9.6179 10.2054C9.77699 10.7338 10.0057 11.1358 10.304 11.4113C10.6051 11.6869 10.9673 11.8247 11.3906 11.8247Z" fill="#2B3D56"/>
<path d="M0.903409 55.6429V54.8758L3.78409 51.7224C4.12216 51.3531 4.40057 51.0321 4.61932 50.7594C4.83807 50.4838 5 50.2253 5.10511 49.9838C5.21307 49.7395 5.26705 49.4838 5.26705 49.2167C5.26705 48.9099 5.19318 48.6443 5.04545 48.4199C4.90057 48.1954 4.7017 48.0221 4.44886 47.9C4.19602 47.7778 3.91193 47.7167 3.59659 47.7167C3.26136 47.7167 2.96875 47.7863 2.71875 47.9256C2.47159 48.0619 2.27983 48.2537 2.14347 48.5008C2.00994 48.748 1.94318 49.0378 1.94318 49.3702H0.9375C0.9375 48.8588 1.0554 48.4099 1.29119 48.0236C1.52699 47.6372 1.84801 47.3361 2.25426 47.1202C2.66335 46.9042 3.12216 46.7963 3.63068 46.7963C4.14205 46.7963 4.59517 46.9042 4.99006 47.1202C5.38494 47.3361 5.6946 47.6273 5.91903 47.9937C6.14347 48.3602 6.25568 48.7679 6.25568 49.2167C6.25568 49.5378 6.19744 49.8517 6.08097 50.1585C5.96733 50.4625 5.76847 50.802 5.48438 51.177C5.20312 51.5491 4.8125 52.0037 4.3125 52.5406L2.35227 54.6372V54.7054H6.40909V55.6429H0.903409ZM11.0156 55.7622C10.3736 55.7622 9.8267 55.5875 9.375 55.2381C8.9233 54.8858 8.57813 54.3758 8.33949 53.7082C8.10085 53.0378 7.98153 52.2281 7.98153 51.2792C7.98153 50.3361 8.10085 49.5307 8.33949 48.8631C8.58097 48.1926 8.92756 47.6812 9.37926 47.329C9.83381 46.9738 10.3793 46.7963 11.0156 46.7963C11.652 46.7963 12.196 46.9738 12.6477 47.329C13.1023 47.6812 13.4489 48.1926 13.6875 48.8631C13.929 49.5307 14.0497 50.3361 14.0497 51.2792C14.0497 52.2281 13.9304 53.0378 13.6918 53.7082C13.4531 54.3758 13.108 54.8858 12.6562 55.2381C12.2045 55.5875 11.6577 55.7622 11.0156 55.7622ZM11.0156 54.8247C11.652 54.8247 12.1463 54.5179 12.4986 53.9042C12.8509 53.2906 13.027 52.4156 13.027 51.2792C13.027 50.5236 12.946 49.8801 12.7841 49.3488C12.625 48.8176 12.3949 48.4128 12.0938 48.1344C11.7955 47.856 11.4361 47.7167 11.0156 47.7167C10.3849 47.7167 9.89205 48.0278 9.53693 48.65C9.18182 49.2693 9.00426 50.1457 9.00426 51.2792C9.00426 52.0349 9.08381 52.677 9.2429 53.2054C9.40199 53.7338 9.63068 54.1358 9.92898 54.4113C10.2301 54.6869 10.5923 54.8247 11.0156 54.8247Z" fill="#2B3D56"/>
<path d="M3.97159 89.9156V98.6429H2.91477V91.0236H2.86364L0.732955 92.4383V91.3645L2.91477 89.9156H3.97159ZM9.32812 98.7622C8.68608 98.7622 8.1392 98.5875 7.6875 98.2381C7.2358 97.8858 6.89063 97.3758 6.65199 96.7082C6.41335 96.0378 6.29403 95.2281 6.29403 94.2792C6.29403 93.3361 6.41335 92.5307 6.65199 91.8631C6.89347 91.1926 7.24006 90.6812 7.69176 90.329C8.14631 89.9738 8.69176 89.7963 9.32812 89.7963C9.96449 89.7963 10.5085 89.9738 10.9602 90.329C11.4148 90.6812 11.7614 91.1926 12 91.8631C12.2415 92.5307 12.3622 93.3361 12.3622 94.2792C12.3622 95.2281 12.2429 96.0378 12.0043 96.7082C11.7656 97.3758 11.4205 97.8858 10.9688 98.2381C10.517 98.5875 9.97017 98.7622 9.32812 98.7622ZM9.32812 97.8247C9.96449 97.8247 10.4588 97.5179 10.8111 96.9042C11.1634 96.2906 11.3395 95.4156 11.3395 94.2792C11.3395 93.5236 11.2585 92.8801 11.0966 92.3488C10.9375 91.8176 10.7074 91.4128 10.4062 91.1344C10.108 90.856 9.74858 90.7167 9.32812 90.7167C8.69744 90.7167 8.20455 91.0278 7.84943 91.65C7.49432 92.2693 7.31676 93.1457 7.31676 94.2792C7.31676 95.0349 7.39631 95.677 7.5554 96.2054C7.71449 96.7338 7.94318 97.1358 8.24148 97.4113C8.54261 97.6869 8.90483 97.8247 9.32812 97.8247Z" fill="#2B3D56"/>
<path d="M3.75 141.762C3.10795 141.762 2.56108 141.587 2.10938 141.238C1.65767 140.886 1.3125 140.376 1.07386 139.708C0.835227 139.038 0.715909 138.228 0.715909 137.279C0.715909 136.336 0.835227 135.531 1.07386 134.863C1.31534 134.193 1.66193 133.681 2.11364 133.329C2.56818 132.974 3.11364 132.796 3.75 132.796C4.38636 132.796 4.9304 132.974 5.3821 133.329C5.83665 133.681 6.18324 134.193 6.42188 134.863C6.66335 135.531 6.78409 136.336 6.78409 137.279C6.78409 138.228 6.66477 139.038 6.42614 139.708C6.1875 140.376 5.84233 140.886 5.39062 141.238C4.93892 141.587 4.39205 141.762 3.75 141.762ZM3.75 140.825C4.38636 140.825 4.88068 140.518 5.23295 139.904C5.58523 139.291 5.76136 138.416 5.76136 137.279C5.76136 136.524 5.6804 135.88 5.51847 135.349C5.35938 134.818 5.12926 134.413 4.82812 134.134C4.52983 133.856 4.17045 133.717 3.75 133.717C3.11932 133.717 2.62642 134.028 2.27131 134.65C1.91619 135.269 1.73864 136.146 1.73864 137.279C1.73864 138.035 1.81818 138.677 1.97727 139.205C2.13636 139.734 2.36506 140.136 2.66335 140.411C2.96449 140.687 3.3267 140.825 3.75 140.825Z" fill="#2B3D56"/>
<path d="M47.7475 116.344C42.8543 120.344 31.2103 126.01 26 128.344V142.844H445.999V0.843846C430.368 -1.65615 413.378 19.8438 409.98 27.8438C406.582 35.8438 398.427 41.3438 382.116 42.8438C365.805 44.3438 376 44.8438 347.456 66.8438C318.912 88.8438 293.767 65.3437 274.058 59.8437C254.349 54.3437 241.437 57.3437 221.048 79.3437C200.66 101.344 193.184 96.8437 180.951 98.3437C168.718 99.8437 155.126 80.8437 140.175 73.3437C125.223 65.8437 109.592 77.3437 100.757 90.8437C91.9222 104.344 82.4077 104.844 70.1747 106.344C57.9417 107.844 53.864 111.344 47.7475 116.344Z" fill="url(#paint0_linear_1974_13222)"/>
<path d="M26 128.143C32.343 124.976 45.8446 118.043 49.1068 115.643C53.1844 112.643 59.3009 107.143 66.7766 107.143C74.2524 107.143 88.5242 108.143 96.6795 97.1429C104.835 86.1429 120.466 61.1429 145.611 76.6429C151.048 82.1429 165.456 94.1429 179.592 98.1429C197.262 103.143 218.33 85.6429 227.165 73.6429C236 61.6429 255.708 50.6429 280.174 62.1429C304.64 73.6429 322.31 81.6429 341.339 70.1429C360.369 58.6429 367.844 43.6429 376 43.6429C384.155 43.6429 402.504 42.6429 408.621 30.6429C414.737 18.6429 430.368 -0.857095 445.999 1.1429" stroke="#008C98" stroke-width="2"/>
<path d="M26.6797 142.643L446 143.143" stroke="#EFEFEF"/>
<defs>
<linearGradient id="paint0_linear_1974_13222" x1="210.854" y1="-376.357" x2="224.473" y2="143.146" gradientUnits="userSpaceOnUse">
<stop stop-color="#00788B"/>
<stop offset="1" stop-color="white"/>
</linearGradient>
</defs>
</svg>
