<svg width="36" height="36" viewBox="0 0 36 36" fill="none" xmlns="http://www.w3.org/2000/svg">
<rect width="36" height="36" rx="18" fill="#8C1E39" fill-opacity="0.13"/>
<path d="M27.7304 24L19.7304 9.99998C19.556 9.69218 19.303 9.43617 18.9973 9.25805C18.6917 9.07993 18.3442 8.98608 17.9904 8.98608C17.6366 8.98608 17.2892 9.07993 16.9835 9.25805C16.6778 9.43617 16.4249 9.69218 16.2504 9.99998L8.25042 24C8.0741 24.3053 7.98165 24.6519 7.98243 25.0045C7.98321 25.3571 8.0772 25.7032 8.25486 26.0078C8.43253 26.3124 8.68757 26.5646 8.99411 26.7388C9.30066 26.9131 9.64783 27.0032 10.0004 27H26.0004C26.3513 26.9996 26.6959 26.9069 26.9997 26.7313C27.3035 26.5556 27.5556 26.3031 27.7309 25.9991C27.9062 25.6951 27.9985 25.3504 27.9984 24.9995C27.9983 24.6486 27.9059 24.3039 27.7304 24Z" stroke="#C80003" stroke-width="2" stroke-linecap="round" stroke-linejoin="round"/>
<path d="M18 15V19" stroke="#C80003" stroke-width="2" stroke-linecap="round" stroke-linejoin="round"/>
<path d="M18 23H18.01" stroke="#C80003" stroke-width="2" stroke-linecap="round" stroke-linejoin="round"/>
</svg>
