<svg width="32" height="32" viewBox="0 0 32 32" fill="none" xmlns="http://www.w3.org/2000/svg">
<path d="M9.36497 22.2978C13.4325 22.2978 16.7299 19.0003 16.7299 14.9328C16.7299 10.8652 13.4325 7.56781 9.36497 7.56781C5.29741 7.56781 2 10.8652 2 14.9328C2 19.0003 5.29741 22.2978 9.36497 22.2978Z" stroke="#083A81" stroke-linecap="round" stroke-linejoin="round"/>
<path d="M9.36396 10.5138V14.9328L6.41797 13.4598" stroke="#083A81" stroke-linecap="round" stroke-linejoin="round"/>
<path d="M17.5566 7.27332C18.5697 5.65468 19.2878 3.86929 19.6777 2C20.4142 5.68249 22.6237 9.21767 25.5697 11.5745C28.5157 13.9313 29.9887 16.7299 29.9887 19.6759C29.9971 21.712 29.4008 23.7048 28.2753 25.4016C27.1498 27.0984 25.5459 28.4228 23.6668 29.2069C21.7877 29.9911 19.7181 30.1996 17.7204 29.8061C15.7226 29.4126 13.8867 28.4349 12.4453 26.9967" stroke="#083A81" stroke-linecap="round" stroke-linejoin="round"/>
</svg>
