<svg width="36" height="36" viewBox="0 0 36 36" fill="none" xmlns="http://www.w3.org/2000/svg">
<rect width="36" height="36" rx="18" fill="#E8A712" fill-opacity="0.09"/>
<path d="M16.2676 27C16.4431 27.304 16.6956 27.5565 16.9996 27.732C17.3037 27.9075 17.6485 27.9999 17.9996 27.9999C18.3506 27.9999 18.6955 27.9075 18.9995 27.732C19.3036 27.5565 19.556 27.304 19.7316 27" stroke="#F4B41E" stroke-width="2" stroke-linecap="round" stroke-linejoin="round"/>
<path d="M28 14C28 11.7 27.2 9.7 26 8" stroke="#F4B41E" stroke-width="2" stroke-linecap="round" stroke-linejoin="round"/>
<path d="M9.26127 21.326C9.13063 21.4692 9.04442 21.6472 9.01312 21.8385C8.98183 22.0298 9.00679 22.226 9.08498 22.4034C9.16316 22.5807 9.2912 22.7316 9.45352 22.8375C9.61585 22.9434 9.80545 22.9999 9.99927 23H25.9993C26.1931 23.0001 26.3827 22.9438 26.5451 22.8381C26.7076 22.7324 26.8358 22.5817 26.9142 22.4045C26.9926 22.2273 27.0178 22.0311 26.9867 21.8398C26.9557 21.6485 26.8697 21.4703 26.7393 21.327C25.4093 19.956 23.9993 18.499 23.9993 14C23.9993 12.4087 23.3671 10.8826 22.2419 9.75736C21.1167 8.63214 19.5906 8 17.9993 8C16.408 8 14.8818 8.63214 13.7566 9.75736C12.6314 10.8826 11.9993 12.4087 11.9993 14C11.9993 18.499 10.5883 19.956 9.26127 21.326Z" stroke="#F4B41E" stroke-width="2" stroke-linecap="round" stroke-linejoin="round"/>
<path d="M10 8C8.8 9.7 8 11.7 8 14" stroke="#F4B41E" stroke-width="2" stroke-linecap="round" stroke-linejoin="round"/>
</svg>
