<svg width="91" height="107" viewBox="0 0 91 107" fill="none" xmlns="http://www.w3.org/2000/svg">
<path d="M58 0.25H10.75C7.96522 0.25 5.29451 1.35625 3.32538 3.32538C1.35625 5.29451 0.25 7.96523 0.25 10.75V94.75C0.25 97.5348 1.35625 100.205 3.32538 102.175C5.29451 104.144 7.96522 105.25 10.75 105.25H73.75C76.5348 105.25 79.2055 104.144 81.1746 102.175C83.1437 100.205 84.25 97.5348 84.25 94.75V26.5L58 0.25Z" fill="#F7FCFF" stroke="#00788B" stroke-width="0.5" stroke-linecap="round" stroke-linejoin="round"/>
<path d="M57.8867 0.25V18.1223C57.8867 20.4924 58.8282 22.7653 60.5041 24.4412C62.1799 26.117 64.4529 27.0585 66.8229 27.0585H84.6952" fill="#00788B"/>
<path d="M31.748 36.9998H21.248H31.748Z" fill="#F7FCFF"/>
<path d="M31.748 36.9998H21.248" stroke="#00788B" stroke-width="2" stroke-linecap="round" stroke-linejoin="round"/>
<path d="M63.248 58.0002H21.248H63.248Z" fill="#F7FCFF"/>
<path d="M63.248 58.0002H21.248" stroke="#00788B" stroke-width="2" stroke-linecap="round" stroke-linejoin="round"/>
<path d="M63.248 79.0001H21.248H63.248Z" fill="#F7FCFF"/>
<path d="M63.248 79.0001H21.248" stroke="#00788B" stroke-width="2" stroke-linecap="round" stroke-linejoin="round"/>
<path d="M73.525 105.25C82.1618 105.25 89.1633 98.2485 89.1633 89.6117C89.1633 80.9749 82.1618 73.9734 73.525 73.9734C64.8882 73.9734 57.8867 80.9749 57.8867 89.6117C57.8867 98.2485 64.8882 105.25 73.525 105.25Z" fill="#C80003" stroke="#C80003" stroke-width="2" stroke-linecap="round" stroke-linejoin="round"/>
<path d="M73.543 83.3563L73.543 89.6116" stroke="white" stroke-width="1.5" stroke-linecap="round" stroke-linejoin="round"/>
<path d="M73.543 95.8669L73.5254 95.8669" stroke="white" stroke-width="1.5" stroke-linecap="round" stroke-linejoin="round"/>
</svg>
