<svg width="114" height="91" viewBox="0 0 114 91" fill="none" xmlns="http://www.w3.org/2000/svg">
<path d="M61.9347 10.3936C33.6987 10.3936 10.8103 34.3428 10.8103 63.8851C10.8103 72.9623 12.9754 81.5103 16.7893 89H107.083C110.897 81.5103 113.062 72.9623 113.062 63.8851C113.062 34.3428 90.1708 10.3936 61.9347 10.3936Z" fill="#C9E7E9" fill-opacity="0.4"/>
<path d="M107.653 54.514C108.213 55.1965 109.082 55.5441 109.918 55.5646C110.756 55.5825 111.587 55.3269 112.247 54.8514C111.528 55.2272 110.718 55.4138 109.936 55.3141C109.159 55.2374 108.417 54.8667 107.967 54.266C107.875 54.1408 107.796 54.0053 107.725 53.8647C108.351 53.7241 108.944 53.3841 109.358 52.8678C109.634 52.515 109.826 52.0779 109.831 51.5973C109.831 51.3596 109.78 51.1014 109.629 50.879C109.481 50.6541 109.235 50.4982 108.987 50.4419C108.739 50.3806 108.479 50.401 108.243 50.4828C108.011 50.5672 107.811 50.7052 107.645 50.8663C107.316 51.1909 107.101 51.6076 107.011 52.0472C106.909 52.5508 106.958 53.062 107.116 53.5324C107.091 53.5349 107.062 53.5401 107.037 53.5401C106.27 53.5835 105.485 53.3816 104.749 53.0774C104.005 52.7809 103.313 52.3565 102.671 51.8581C103.236 52.4434 103.913 52.9215 104.644 53.3023C105.375 53.6704 106.191 53.9491 107.052 53.9363C107.126 53.9363 107.203 53.9312 107.277 53.9235C107.379 54.1382 107.505 54.335 107.653 54.514ZM107.484 52.1546C107.564 51.8018 107.737 51.4695 107.993 51.2267C108.243 50.9813 108.568 50.8586 108.865 50.9378C109.164 51.0017 109.33 51.2574 109.33 51.5999C109.332 51.9348 109.189 52.285 108.975 52.5713C108.757 52.8601 108.458 53.0978 108.123 53.264C107.942 53.3509 107.753 53.4174 107.556 53.4634C107.418 53.0365 107.379 52.5815 107.484 52.1546Z" fill="#DEDDF9"/>
<path d="M37.5051 62.8064L13.9751 63.1131L21.4955 66.6944L18.9367 72.474L23.52 70.3396L22.3646 68.6371L27.8886 76.771L37.5051 62.8064Z" fill="#DEDDF9"/>
<path d="M16.3268 74.2608C15.675 74.7158 15.0001 75.1325 14.2895 75.4673C13.607 75.7741 12.8912 76.0246 12.1602 76.1089C12.1883 76.2393 12.2189 76.3671 12.2471 76.4975C13.019 76.3748 13.745 76.0936 14.425 75.746C14.7854 75.5568 15.1305 75.3472 15.4654 75.1248C15.7977 74.8973 16.1172 74.6545 16.4316 74.4039C17.0553 73.9004 17.6509 73.3636 18.2312 72.8165C17.6024 73.3022 16.9786 73.8032 16.3268 74.2608Z" fill="#DEDDF9"/>
<path d="M86.1704 83.4325V41.2472L86.9782 40.9583V31.5208L86.1704 31.2319V29.4247L86.9782 29.1358V24.1435L86.1704 23.8547V22.8449L86.9782 22.5561V17.5612L86.1704 17.2724V16.7765C78.9567 12.707 70.7052 10.3936 61.9348 10.3936C54.0668 10.3936 46.618 12.2545 39.959 15.575V28.9645H33.3614C32.5383 26.9579 30.5649 25.5392 28.2668 25.5392C27.321 25.5392 26.4315 25.7795 25.6544 26.2013C24.7853 27.1164 23.9468 28.0673 23.1416 29.0463C22.8988 29.6675 22.7607 30.3398 22.7607 31.0479C22.7607 33.5555 24.4478 35.6746 26.7459 36.3367V48.875C26.7459 51.3775 28.773 53.4046 31.2755 53.4046H39.959V83.4325C39.959 85.6488 41.1246 87.7142 42.8987 89H83.1208C84.9945 87.7423 86.1704 85.7204 86.1704 83.4325Z" fill="#DEDDF9"/>
<path d="M89.3684 44.9077L96.0171 54.5626L99.036 50.1147L102.203 51.5922L100.437 47.5943L105.634 45.1199L89.3684 44.9077Z" fill="#DEDDF9"/>
<path d="M111.431 89H12.4412" stroke="#5774BE" stroke-width="2.0719" stroke-miterlimit="10" stroke-linecap="round" stroke-linejoin="round"/>
<path d="M85.444 21.0198V16.0275L84.6362 15.7387V13.8062C84.6362 10.23 81.7272 7.31847 78.1485 7.31847H44.9125C41.3363 7.31847 38.4248 10.2274 38.4248 13.8062V81.8988C38.4248 85.2449 41.0833 88.251 44.4779 88.7418C44.5444 88.752 44.6134 88.7572 44.6799 88.7572H77.9159C77.9721 88.7572 78.0309 88.7546 78.0872 88.7469C81.8806 88.2817 84.6336 85.4008 84.6336 81.8988V39.7135L85.4414 39.4246V29.987L84.6336 29.6982V27.8909L85.4414 27.6021V22.6098L84.6336 22.3209V21.3112L85.444 21.0198Z" fill="#083A81"/>
<path d="M44.6824 87.3487C42.1134 86.978 39.8333 84.6979 39.8333 81.8988V13.8062C39.8333 11.0045 42.1108 8.72694 44.9125 8.72694H78.1485C80.9501 8.72694 83.2277 11.0045 83.2277 13.8062V81.8988C83.2277 84.6979 80.9501 86.978 77.9184 87.3487H44.6824Z" fill="#959CA2"/>
<path d="M78.1511 10.7157H72.3561C72.3561 10.7157 70.4389 13.4202 69.5008 13.4202H54.4268C53.4886 13.4202 51.5715 10.7157 51.5715 10.7157H44.9125C43.2049 10.7157 41.822 12.0986 41.822 13.8062V75.4162C41.822 77.6222 43.6088 79.409 45.8148 79.409H77.2487C79.4547 79.409 81.2415 77.6222 81.2415 75.4162V13.8062C81.2415 12.0986 79.8561 10.7157 78.1511 10.7157Z" fill="white"/>
<path d="M78.4296 17.7044H45.0735V21.0403H78.4296V17.7044Z" fill="#B5B5E2"/>
<path d="M78.4296 24.78H45.0735V26.4467H78.4296V24.78Z" fill="#B5B5E2"/>
<path d="M78.4296 28.8879H45.0735V30.5545H78.4296V28.8879Z" fill="#B5B5E2"/>
<path d="M78.4296 32.9932H45.0735V34.6598H78.4296V32.9932Z" fill="#B5B5E2"/>
<path d="M78.4296 37.101H45.0735V38.7677H78.4296V37.101Z" fill="#B5B5E2"/>
<path d="M78.4296 41.2089H45.0735V42.8755H78.4296V41.2089Z" fill="#B5B5E2"/>
<path d="M78.4296 45.3167H45.0735V46.9834H78.4296V45.3167Z" fill="#B5B5E2"/>
<path d="M78.4296 49.422H45.0735V51.0887H78.4296V49.422Z" fill="#B5B5E2"/>
<path d="M78.4296 53.5298H45.0735V55.1965H78.4296V53.5298Z" fill="#B5B5E2"/>
<path d="M78.4296 57.6377H45.0735V59.3044H78.4296V57.6377Z" fill="#B5B5E2"/>
<path d="M78.4296 61.7455H45.0735V63.4122H78.4296V61.7455Z" fill="#B5B5E2"/>
<path d="M78.4296 65.8534H45.0735V67.5201H78.4296V65.8534Z" fill="#B5B5E2"/>
<path d="M66.51 69.9587H45.0735V71.6253H66.51V69.9587Z" fill="#B5B5E2"/>
<path d="M58.0105 74.0665H45.0735V75.7332H58.0105V74.0665Z" fill="#B5B5E2"/>
<path d="M66.0143 11.7075H55.365C55.0915 11.7075 54.8691 11.4851 54.8691 11.2116C54.8691 10.9381 55.0915 10.7157 55.365 10.7157H66.0143C66.2878 10.7157 66.5102 10.9381 66.5102 11.2116C66.5102 11.4851 66.2878 11.7075 66.0143 11.7075Z" fill="#083A81"/>
<path d="M69.0562 11.2167C69.0562 11.4928 68.8313 11.7177 68.5552 11.7177C68.2791 11.7177 68.0542 11.4928 68.0542 11.2167C68.0542 10.9406 68.2791 10.7157 68.5552 10.7157C68.8313 10.7157 69.0562 10.9381 69.0562 11.2167Z" fill="#083A81"/>
<path d="M61.9369 85.9837C63.2978 85.9837 64.4011 84.8804 64.4011 83.5195C64.4011 82.1585 63.2978 81.0553 61.9369 81.0553C60.5759 81.0553 59.4727 82.1585 59.4727 83.5195C59.4727 84.8804 60.5759 85.9837 61.9369 85.9837Z" fill="#083A81"/>
<path d="M79.0662 10.8537L41.822 73.1258V75.4162C41.822 77.6222 43.6088 79.409 45.8148 79.409H52.6987L81.2415 31.6895V13.8061C81.2415 12.4181 80.3264 11.2448 79.0662 10.8537Z" fill="white"/>
<path d="M72.356 10.7157C72.356 10.7157 70.4388 13.4202 69.5007 13.4202H55.9936L41.8245 37.1112V67.9188L76.0369 10.7157H72.356Z" fill="white"/>
<path d="M65.4543 79.409L81.2416 53.016V36.8965L55.8123 79.409H65.4543Z" fill="white"/>
<path d="M84.1454 0C84.3039 0.557257 84.3857 1.11196 84.447 1.66921C84.5033 2.22647 84.5288 2.78117 84.5288 3.33843C84.5288 3.89568 84.5033 4.45038 84.447 5.00764C84.3857 5.5649 84.3064 6.1196 84.1454 6.67685C83.9844 6.1196 83.9051 5.5649 83.8438 5.00764C83.7875 4.45038 83.762 3.89568 83.762 3.33843C83.762 2.78117 83.7875 2.22647 83.8438 1.66921C83.9077 1.11196 83.9869 0.557257 84.1454 0Z" fill="#E8A712"/>
<path d="M92.9874 9.03114C92.4301 9.18962 91.8754 9.27142 91.3182 9.33277C90.7609 9.38901 90.2062 9.41457 89.649 9.41457C89.0917 9.41457 88.537 9.38901 87.9798 9.33277C87.4225 9.27142 86.8678 9.19218 86.3105 9.03114C86.8678 8.8701 87.4225 8.79085 87.9798 8.7295C88.537 8.67327 89.0917 8.64771 89.649 8.64771C90.2062 8.64771 90.7609 8.67327 91.3182 8.7295C91.8754 8.79085 92.4327 8.8701 92.9874 9.03114Z" fill="#E8A712"/>
<path d="M90.0299 3.03935C89.7488 3.54548 89.4113 3.99538 89.0611 4.43249C88.7084 4.8645 88.3326 5.2786 87.9389 5.67226C87.5453 6.06592 87.1337 6.44168 86.7017 6.79444C86.2646 7.14465 85.8147 7.48207 85.3086 7.7607C85.5872 7.25456 85.9246 6.80467 86.2748 6.36755C86.6276 5.93555 87.0034 5.52144 87.397 5.13034C87.7907 4.73668 88.2022 4.36348 88.6368 4.00816C89.0739 3.65796 89.5238 3.32054 90.0299 3.03935Z" fill="#E8A712"/>
<path d="M91.1701 15.1661C90.6639 14.8849 90.214 14.5475 89.7769 14.1973C89.3449 13.8445 88.9308 13.4687 88.5372 13.0751C88.1435 12.6814 87.7677 12.2699 87.415 11.8379C87.0648 11.4007 86.7274 10.9508 86.4487 10.4447C86.9549 10.7233 87.4048 11.0608 87.8419 11.411C88.2739 11.7637 88.688 12.1395 89.0791 12.5332C89.4727 12.9268 89.8459 13.3384 90.2013 13.7729C90.554 14.21 90.8914 14.6599 91.1701 15.1661Z" fill="#E8A712"/>
<path d="M82.6244 6.62062C82.1183 6.33943 81.6684 6.00201 81.2313 5.65181C80.7993 5.29905 80.3852 4.92329 79.9915 4.52963C79.5978 4.13597 79.2221 3.72442 78.8693 3.29242C78.5191 2.8553 78.1817 2.40541 77.9031 1.89928C78.4092 2.1779 78.8591 2.51533 79.2962 2.86553C79.7282 3.21829 80.1423 3.59405 80.5334 3.98771C80.9271 4.38137 81.3003 4.79292 81.6556 5.22748C82.0058 5.66459 82.3432 6.11193 82.6244 6.62062Z" fill="#E8A712"/>
<path d="M41.7024 47.2543C41.7024 47.2543 45.2632 60.222 61.3879 58.6755C61.3879 58.6755 53.3179 57.3131 53.3179 47.2543H41.7024Z" fill="#5DB4BB"/>
<path d="M59.4629 51.8683H29.7442C27.2417 51.8683 25.2146 49.8412 25.2146 47.3387V31.9605C25.2146 29.4579 27.2417 27.4308 29.7442 27.4308H59.4654C61.968 27.4308 63.9951 29.4579 63.9951 31.9605V47.3387C63.9925 49.8412 61.9654 51.8683 59.4629 51.8683Z" fill="#5DB4BB"/>
<path d="M54.1949 35.0254H35.0105V48.8136H54.1949V35.0254Z" fill="white"/>
<path d="M51.7308 30.4855H37.4773V48.1516H51.7308V30.4855Z" fill="white"/>
<path d="M50.1436 32.4001H39.0649V33.4405H50.1436V32.4001Z" fill="#D0D0D0"/>
<path d="M50.1439 34.532H39.0652V35.5724H50.1439V34.532Z" fill="#D0D0D0"/>
<path d="M50.1439 36.6665H39.0652V37.7069H50.1439V36.6665Z" fill="#D0D0D0"/>
<path d="M50.1439 38.7984H39.0652V39.8387H50.1439V38.7984Z" fill="#D0D0D0"/>
<path d="M50.1439 40.9303H39.0652V41.9706H50.1439V40.9303Z" fill="#D0D0D0"/>
<path d="M50.1439 43.0647H39.0652V44.1051H50.1439V43.0647Z" fill="#D0D0D0"/>
<path d="M50.1439 45.1966H39.0652V46.237H50.1439V45.1966Z" fill="#D0D0D0"/>
<path d="M39.2998 41.4824L35.0105 35.0254V48.8162H54.1949V35.0254L49.9235 41.4824H39.2998Z" fill="#E8A712"/>
<path d="M54.1949 48.8162H35.0105L39.2998 41.4824H49.9082L54.1949 48.8162Z" fill="#E8A712"/>
<path d="M35.0105 48.8162C35.3428 48.1899 35.6828 47.5688 36.0253 46.9501C36.3653 46.329 36.7027 45.7078 37.0529 45.0918L38.0933 43.2411L39.1388 41.3929L39.1899 41.3009H39.2998C41.0687 41.2805 42.8351 41.2779 44.604 41.2728C46.3729 41.2779 48.1393 41.2805 49.9082 41.3009H50.0181L50.0692 41.3929C50.7722 42.6225 51.4598 43.8597 52.1551 45.0918C52.5053 45.7078 52.8427 46.329 53.1827 46.9501C53.5227 47.5713 53.8626 48.1925 54.1949 48.8162C53.8115 48.2206 53.4383 47.6199 53.0651 47.0166C52.6919 46.4159 52.3136 45.8152 51.948 45.2094C51.2144 43.9977 50.4731 42.7937 49.7471 41.577L49.9082 41.669C48.1393 41.6894 46.3729 41.692 44.604 41.6971C42.8351 41.692 41.0687 41.6894 39.2998 41.669L39.4609 41.577L38.3617 43.3944L37.2574 45.2094C36.8919 45.8152 36.5136 46.4159 36.1403 47.0166C35.7671 47.6173 35.3939 48.218 35.0105 48.8162Z" fill="white"/>
<path d="M60.838 35.6031C60.5569 36.1092 60.2194 36.5591 59.8692 36.9962C59.5165 37.4282 59.1407 37.8424 58.7471 38.236C58.3534 38.6297 57.9418 39.0054 57.5098 39.3582C57.0727 39.7084 56.6228 40.0458 56.1167 40.3244C56.3953 39.8183 56.7327 39.3684 57.083 38.9313C57.4357 38.4993 57.8115 38.0852 58.2051 37.6941C58.5988 37.3004 59.0103 36.9272 59.4449 36.5719C59.882 36.2192 60.3319 35.8817 60.838 35.6031Z" fill="#E2C7C9"/>
<path d="M60.705 48.2385C60.1989 47.9573 59.749 47.6199 59.3118 47.2697C58.8798 46.9169 58.4657 46.5412 58.0721 46.1475C57.6784 45.7539 57.3027 45.3423 56.9499 44.9103C56.5997 44.4732 56.2623 44.0233 55.9836 43.5172C56.4898 43.7958 56.9397 44.1332 57.3768 44.4834C57.8088 44.8362 58.2229 45.2119 58.614 45.6056C59.0077 45.9993 59.3809 46.4108 59.7362 46.8454C60.0889 47.2825 60.4264 47.7324 60.705 48.2385Z" fill="#E2C7C9"/>
<path d="M62.8499 41.9119C62.2927 42.0703 61.738 42.1521 61.1807 42.2135C60.6235 42.2697 60.0688 42.2953 59.5115 42.2953C58.9543 42.2953 58.3996 42.2697 57.8423 42.2135C57.2851 42.1521 56.7304 42.0729 56.1731 41.9119C56.7304 41.7508 57.2851 41.6716 57.8423 41.6102C58.3996 41.554 58.9543 41.5284 59.5115 41.5284C60.0688 41.5284 60.6235 41.554 61.1807 41.6102C61.7354 41.6716 62.2927 41.7508 62.8499 41.9119Z" fill="#E2C7C9"/>
<path d="M28.3694 35.6031C28.8755 35.8843 29.3254 36.2217 29.7625 36.5719C30.1945 36.9247 30.6086 37.3004 31.0023 37.6941C31.396 38.0878 31.7717 38.4993 32.1245 38.9313C32.4747 39.3684 32.8121 39.8183 33.0907 40.3244C32.5846 40.0458 32.1347 39.7084 31.6976 39.3582C31.2656 39.0054 30.8515 38.6297 30.4604 38.236C30.0667 37.8424 29.6935 37.4308 29.3382 36.9962C28.9854 36.5591 28.648 36.1092 28.3694 35.6031Z" fill="#E2C7C9"/>
<path d="M28.4998 48.2385C28.7809 47.7324 29.1184 47.2825 29.4686 46.8454C29.8213 46.4134 30.1971 45.9993 30.5907 45.6056C30.9844 45.2119 31.396 44.8362 31.828 44.4834C32.2651 44.1332 32.715 43.7958 33.2211 43.5172C32.9425 44.0233 32.605 44.4732 32.2548 44.9103C31.9021 45.3423 31.5263 45.7564 31.1327 46.1475C30.739 46.5412 30.3275 46.9144 29.8929 47.2697C29.4558 47.6225 29.0059 47.9599 28.4998 48.2385Z" fill="#E2C7C9"/>
<path d="M26.3577 41.9119C26.9149 41.7534 27.4696 41.6716 28.0269 41.6102C28.5841 41.554 29.1388 41.5284 29.6961 41.5284C30.2533 41.5284 30.808 41.554 31.3653 41.6102C31.9226 41.6716 32.4773 41.7508 33.0345 41.9119C32.4773 42.0729 31.9226 42.1521 31.3653 42.2135C30.808 42.2697 30.2533 42.2953 29.6961 42.2953C29.1388 42.2953 28.5841 42.2697 28.0269 42.2135C27.4696 42.1521 26.9149 42.0703 26.3577 41.9119Z" fill="#E2C7C9"/>
<path d="M28.7406 34.3506C31.4132 33.2436 32.6823 30.1796 31.5753 27.5071C30.4682 24.8345 27.4043 23.5654 24.7317 24.6724C22.0591 25.7794 20.79 28.8434 21.897 31.516C23.0041 34.1886 26.0681 35.4577 28.7406 34.3506Z" fill="white" stroke="#E8A712" stroke-width="2.1036" stroke-miterlimit="10"/>
<path d="M27.2799 26.5336H26.6894C26.6127 26.5336 26.5411 26.5796 26.513 26.6512C26.3801 26.9707 25.9123 27.188 25.2605 27.234C25.1608 27.2417 25.0815 27.326 25.0815 27.4257V28.0137C25.0815 28.121 25.1685 28.2054 25.2733 28.2054H26.2446V32.2953C26.2446 32.4027 26.3315 32.4871 26.4363 32.4871H27.2799C27.3873 32.4871 27.4716 32.4001 27.4716 32.2953V26.7228C27.4716 26.6205 27.3847 26.5336 27.2799 26.5336Z" fill="#0076BF"/>
<path d="M20.8308 67.1034L35.9713 61.2726L26.3548 75.2373L20.8308 67.1034Z" fill="#3299C7"/>
<path d="M17.4031 70.9403L20.831 67.1034L21.9864 68.8058L17.4031 70.9403Z" fill="#0376B9"/>
<path d="M19.9619 65.1607L17.4031 70.9403L20.831 67.1034L35.9715 61.2726L19.9619 65.1607Z" fill="#0376B9"/>
<path d="M12.4412 61.5794L19.9616 65.1607L35.9712 61.2726L12.4412 61.5794Z" fill="white"/>
<path d="M16.6972 71.2777C16.117 71.8273 15.5239 72.3615 14.8977 72.8651C14.5832 73.1156 14.2637 73.3585 13.9314 73.586C13.5965 73.8084 13.2489 74.0205 12.891 74.2071C12.1702 74.5778 11.3956 74.8743 10.5725 74.9817C9.75455 75.0942 8.91099 75.0328 8.11089 74.7951C7.31591 74.5573 6.5516 74.1228 5.9969 73.4658C5.4422 72.8217 5.10733 71.9551 5.17124 71.0809C5.19936 70.6463 5.33995 70.2067 5.59557 69.8334C5.85886 69.4577 6.21162 69.197 6.58739 68.9873C6.77655 68.8851 6.97849 68.7982 7.19577 68.7419C7.41049 68.6857 7.64822 68.6525 7.89873 68.701C8.14924 68.7419 8.39975 68.9107 8.53523 69.1279C8.67071 69.3452 8.72694 69.5804 8.74739 69.8002V69.8028C8.75251 69.8565 8.73973 69.9076 8.71161 69.951C8.45854 70.3421 8.07766 70.6719 7.63799 70.8432C7.20088 71.0221 6.72798 71.0553 6.28064 71.0195C5.3834 70.9352 4.55519 70.6029 3.79343 70.1913C3.02912 69.7772 2.32616 69.2685 1.68455 68.6934C1.0455 68.1182 0.452451 67.4817 0 66.7532C0.516357 67.4357 1.13496 68.0288 1.79958 68.5579C2.46675 69.0819 3.1825 69.542 3.93658 69.9153C4.69067 70.2782 5.49588 70.5696 6.30876 70.6182C6.71264 70.6387 7.11652 70.5901 7.46928 70.4393C7.8246 70.291 8.11601 70.0277 8.3205 69.7005L8.28472 69.8513C8.26427 69.675 8.2157 69.5139 8.13646 69.3912C8.05466 69.2736 7.9473 69.2021 7.80159 69.1791C7.50763 69.1279 7.13697 69.2506 6.82256 69.4245C6.50303 69.6034 6.19884 69.8386 6.00712 70.1197C5.81285 70.4086 5.70038 70.7562 5.67993 71.1167C5.65436 71.4771 5.70805 71.8478 5.82563 72.1928C5.94577 72.5354 6.13749 72.8626 6.37522 73.1463C6.85323 73.7163 7.52296 74.1202 8.24637 74.3554C8.97234 74.588 9.7571 74.6596 10.5214 74.5855C11.2883 74.5113 12.0373 74.2532 12.7504 73.9311C13.4611 73.5962 14.1385 73.1795 14.7877 72.7245C15.4447 72.2695 16.0684 71.7685 16.6972 71.2777Z" fill="#0376B9"/>
<path d="M97.9114 47.2981L87.9341 43.4558L94.2712 52.6582L97.9114 47.2981Z" fill="#3299C7"/>
<path d="M100.17 49.8266L97.9113 47.2981L97.1499 48.42L100.17 49.8266Z" fill="#0376B9"/>
<path d="M98.484 46.0179L100.17 49.8265L97.9113 47.2981L87.934 43.4558L98.484 46.0179Z" fill="#0376B9"/>
<path d="M103.44 43.6579L98.4842 46.0179L87.9342 43.4558L103.44 43.6579Z" fill="white"/>
<path d="M100.635 50.0489C101.017 50.4111 101.408 50.7631 101.821 51.095C102.028 51.26 102.239 51.4201 102.458 51.57C102.678 51.7165 102.907 51.8564 103.143 51.9793C103.618 52.2236 104.129 52.419 104.671 52.4897C105.21 52.5638 105.766 52.5234 106.293 52.3668C106.817 52.2101 107.321 51.9237 107.686 51.4908C108.052 51.0663 108.273 50.4953 108.23 49.9192C108.212 49.6328 108.119 49.3431 107.951 49.0972C107.777 48.8495 107.545 48.6777 107.297 48.5396C107.173 48.4722 107.04 48.4149 106.896 48.3779C106.755 48.3408 106.598 48.3189 106.433 48.3509C106.268 48.3779 106.103 48.489 106.014 48.6322C105.924 48.7754 105.887 48.9304 105.874 49.0753V49.0769C105.87 49.1123 105.879 49.146 105.897 49.1746C106.064 49.4324 106.315 49.6497 106.605 49.7625C106.893 49.8804 107.205 49.9023 107.499 49.8788C108.091 49.8232 108.636 49.6042 109.138 49.333C109.642 49.0601 110.105 48.7249 110.528 48.3459C110.949 47.9669 111.34 47.5474 111.638 47.0673C111.298 47.5171 110.89 47.9079 110.452 48.2566C110.013 48.6019 109.541 48.9051 109.044 49.1511C108.547 49.3903 108.017 49.5823 107.481 49.6143C107.215 49.6278 106.949 49.5958 106.716 49.4964C106.482 49.3987 106.29 49.2252 106.155 49.0096L106.179 49.1089C106.192 48.9927 106.224 48.8866 106.276 48.8057C106.33 48.7282 106.401 48.6811 106.497 48.6659C106.691 48.6322 106.935 48.7131 107.142 48.8276C107.353 48.9455 107.553 49.1005 107.68 49.2858C107.808 49.4762 107.882 49.7053 107.895 49.9428C107.912 50.1803 107.877 50.4245 107.799 50.6519C107.72 50.8777 107.594 51.0933 107.437 51.2803C107.122 51.6559 106.681 51.9221 106.204 52.077C105.726 52.2303 105.208 52.2775 104.705 52.2286C104.199 52.1798 103.706 52.0096 103.236 51.7974C102.768 51.5767 102.321 51.3022 101.893 51.0023C101.46 50.7025 101.049 50.3723 100.635 50.0489Z" fill="#0376B9"/>
</svg>
