<svg width="261" height="261" viewBox="0 0 261 261" fill="none" xmlns="http://www.w3.org/2000/svg">
<g filter="url(#filter0_d_423_4221)">
<circle cx="130.5" cy="126.5" r="80.5" fill="white"/>
</g>
<g opacity="0.5">
<mask id="path-2-inside-1_423_4221" fill="white">
<path d="M195.159 126.778C200.682 126.778 205.228 122.281 204.486 116.808C203.63 110.493 201.961 104.301 199.512 98.387C195.783 89.3859 190.318 81.2073 183.429 74.3181C176.54 67.4289 168.362 61.9641 159.36 58.2357C150.359 54.5074 140.712 52.5884 130.969 52.5884C121.226 52.5884 111.579 54.5074 102.578 58.2357C93.5768 61.9641 85.3982 67.4289 78.509 74.3181C71.6198 81.2073 66.1551 89.3859 62.4267 98.387C59.9772 104.301 58.3087 110.493 57.4522 116.808C56.7101 122.281 61.2565 126.778 66.7793 126.778L115.471 126.778C117.884 126.778 119.764 124.749 120.688 122.52C121.247 121.169 122.067 119.943 123.1 118.909C124.134 117.876 125.36 117.056 126.71 116.497C128.061 115.938 129.508 115.65 130.969 115.65C132.431 115.65 133.878 115.938 135.228 116.497C136.578 117.056 137.805 117.876 138.838 118.909C139.872 119.943 140.691 121.169 141.251 122.52C142.174 124.749 144.054 126.778 146.468 126.778H195.159Z"/>
</mask>
<path d="M195.159 126.778C200.682 126.778 205.228 122.281 204.486 116.808C203.63 110.493 201.961 104.301 199.512 98.387C195.783 89.3859 190.318 81.2073 183.429 74.3181C176.54 67.4289 168.362 61.9641 159.36 58.2357C150.359 54.5074 140.712 52.5884 130.969 52.5884C121.226 52.5884 111.579 54.5074 102.578 58.2357C93.5768 61.9641 85.3982 67.4289 78.509 74.3181C71.6198 81.2073 66.1551 89.3859 62.4267 98.387C59.9772 104.301 58.3087 110.493 57.4522 116.808C56.7101 122.281 61.2565 126.778 66.7793 126.778L115.471 126.778C117.884 126.778 119.764 124.749 120.688 122.52C121.247 121.169 122.067 119.943 123.1 118.909C124.134 117.876 125.36 117.056 126.71 116.497C128.061 115.938 129.508 115.65 130.969 115.65C132.431 115.65 133.878 115.938 135.228 116.497C136.578 117.056 137.805 117.876 138.838 118.909C139.872 119.943 140.691 121.169 141.251 122.52C142.174 124.749 144.054 126.778 146.468 126.778H195.159Z" fill="url(#paint0_linear_423_4221)" stroke="white" stroke-width="4" mask="url(#path-2-inside-1_423_4221)"/>
</g>
<g opacity="0.5">
<mask id="path-3-inside-2_423_4221" fill="white">
<path d="M130.779 190.968C130.779 196.491 135.276 201.038 140.749 200.295C147.064 199.439 153.257 197.77 159.17 195.321C168.171 191.593 176.35 186.128 183.239 179.239C190.128 172.349 195.593 164.171 199.321 155.17C201.771 149.256 203.439 143.064 204.296 136.748C205.038 131.276 200.492 126.778 194.969 126.778L146.277 126.779C143.864 126.779 141.984 128.807 141.06 131.037C140.501 132.387 139.681 133.614 138.648 134.648C137.615 135.681 136.388 136.501 135.038 137.06C132.808 137.984 130.779 139.864 130.779 142.277L130.779 190.968Z"/>
</mask>
<path d="M130.779 190.968C130.779 196.491 135.276 201.038 140.749 200.295C147.064 199.439 153.257 197.77 159.17 195.321C168.171 191.593 176.35 186.128 183.239 179.239C190.128 172.349 195.593 164.171 199.321 155.17C201.771 149.256 203.439 143.064 204.296 136.748C205.038 131.276 200.492 126.778 194.969 126.778L146.277 126.779C143.864 126.779 141.984 128.807 141.06 131.037C140.501 132.387 139.681 133.614 138.648 134.648C137.615 135.681 136.388 136.501 135.038 137.06C132.808 137.984 130.779 139.864 130.779 142.277L130.779 190.968Z" fill="#9AD2D7" stroke="white" stroke-width="4" mask="url(#path-3-inside-2_423_4221)"/>
</g>
<g opacity="0.5">
<mask id="path-4-inside-3_423_4221" fill="white">
<path d="M66.589 126.778C61.0662 126.778 56.5198 131.275 57.2619 136.748C58.1184 143.063 59.7869 149.256 62.2364 155.17C65.9648 164.171 71.4296 172.349 78.3187 179.238C85.2079 186.128 93.3865 191.592 102.388 195.321C108.301 197.77 114.494 199.439 120.809 200.295C126.282 201.037 130.779 196.491 130.779 190.968L130.779 142.277C130.779 139.863 128.75 137.983 126.52 137.06C125.17 136.5 123.943 135.681 122.91 134.647C121.876 133.614 121.057 132.387 120.498 131.037C119.574 128.807 117.694 126.778 115.28 126.778L66.589 126.778Z"/>
</mask>
<path d="M66.589 126.778C61.0662 126.778 56.5198 131.275 57.2619 136.748C58.1184 143.063 59.7869 149.256 62.2364 155.17C65.9648 164.171 71.4296 172.349 78.3187 179.238C85.2079 186.128 93.3865 191.592 102.388 195.321C108.301 197.77 114.494 199.439 120.809 200.295C126.282 201.037 130.779 196.491 130.779 190.968L130.779 142.277C130.779 139.863 128.75 137.983 126.52 137.06C125.17 136.5 123.943 135.681 122.91 134.647C121.876 133.614 121.057 132.387 120.498 131.037C119.574 128.807 117.694 126.778 115.28 126.778L66.589 126.778Z" fill="#FFD370" stroke="white" stroke-width="4" mask="url(#path-4-inside-3_423_4221)"/>
</g>
<path d="M85.7777 161.24V160.445L88.2386 157.895C88.5014 157.618 88.718 157.375 88.8885 157.167C89.0613 156.956 89.1903 156.756 89.2756 156.567C89.3608 156.378 89.4034 156.176 89.4034 155.963C89.4034 155.722 89.3466 155.513 89.233 155.338C89.1193 155.161 88.9643 155.025 88.7678 154.93C88.5713 154.833 88.3499 154.784 88.1037 154.784C87.8433 154.784 87.616 154.838 87.4219 154.944C87.2277 155.051 87.0786 155.201 86.9744 155.395C86.8703 155.589 86.8182 155.816 86.8182 156.077H85.7706C85.7706 155.634 85.8724 155.247 86.076 154.916C86.2796 154.584 86.5589 154.327 86.9141 154.145C87.2692 153.96 87.6728 153.868 88.125 153.868C88.5819 153.868 88.9844 153.959 89.3324 154.142C89.6828 154.321 89.9562 154.568 90.1527 154.88C90.3492 155.19 90.4474 155.541 90.4474 155.931C90.4474 156.201 90.3965 156.465 90.2947 156.723C90.1953 156.981 90.0213 157.269 89.7727 157.586C89.5241 157.901 89.1785 158.283 88.7358 158.733L87.2905 160.246V160.299H90.5646V161.24H85.7777ZM94.3111 161.34C93.866 161.34 93.4659 161.254 93.1108 161.084C92.758 160.911 92.4763 160.674 92.2656 160.374C92.0549 160.073 91.9425 159.73 91.9283 159.344H92.9936C93.0196 159.656 93.1581 159.913 93.4091 160.115C93.66 160.316 93.9607 160.416 94.3111 160.416C94.5904 160.416 94.8378 160.352 95.0533 160.225C95.2711 160.094 95.4415 159.916 95.5646 159.688C95.6901 159.461 95.7528 159.202 95.7528 158.911C95.7528 158.615 95.6889 158.351 95.5611 158.119C95.4332 157.887 95.2569 157.704 95.032 157.572C94.8094 157.439 94.5537 157.372 94.2649 157.369C94.0447 157.369 93.8234 157.407 93.6009 157.483C93.3783 157.559 93.1984 157.658 93.0611 157.781L92.0561 157.632L92.4645 153.968H96.4631V154.909H93.3771L93.1463 156.943H93.1889C93.331 156.806 93.5192 156.691 93.7536 156.599C93.9903 156.507 94.2436 156.46 94.5135 156.46C94.9562 156.46 95.3504 156.566 95.696 156.776C96.044 156.987 96.3175 157.275 96.5163 157.639C96.7176 158.002 96.817 158.418 96.8146 158.889C96.817 159.36 96.7105 159.781 96.495 160.15C96.282 160.519 95.986 160.811 95.6072 161.024C95.2308 161.234 94.7988 161.34 94.3111 161.34ZM101.908 159.877V159.493C101.908 159.218 101.965 158.968 102.078 158.74C102.194 158.511 102.362 158.327 102.583 158.19C102.805 158.05 103.074 157.98 103.389 157.98C103.711 157.98 103.981 158.049 104.198 158.186C104.416 158.324 104.581 158.507 104.692 158.737C104.806 158.966 104.862 159.218 104.862 159.493V159.877C104.862 160.151 104.806 160.403 104.692 160.633C104.578 160.86 104.411 161.044 104.191 161.183C103.973 161.321 103.706 161.389 103.389 161.389C103.069 161.389 102.799 161.321 102.579 161.183C102.359 161.044 102.192 160.86 102.078 160.633C101.965 160.403 101.908 160.151 101.908 159.877ZM102.735 159.493V159.877C102.735 160.08 102.784 160.265 102.881 160.431C102.978 160.596 103.147 160.679 103.389 160.679C103.628 160.679 103.795 160.596 103.889 160.431C103.984 160.265 104.031 160.08 104.031 159.877V159.493C104.031 159.289 103.985 159.105 103.893 158.939C103.803 158.773 103.635 158.691 103.389 158.691C103.152 158.691 102.984 158.773 102.884 158.939C102.785 159.105 102.735 159.289 102.735 159.493ZM98.2502 155.715V155.331C98.2502 155.057 98.307 154.804 98.4206 154.575C98.5366 154.345 98.7047 154.162 98.9249 154.024C99.1474 153.887 99.4161 153.818 99.731 153.818C100.053 153.818 100.323 153.887 100.541 154.024C100.758 154.162 100.923 154.345 101.034 154.575C101.146 154.804 101.201 155.057 101.201 155.331V155.715C101.201 155.989 101.144 156.241 101.031 156.471C100.919 156.698 100.754 156.882 100.534 157.021C100.316 157.159 100.048 157.227 99.731 157.227C99.409 157.227 99.138 157.159 98.9178 157.021C98.7 156.882 98.5343 156.698 98.4206 156.471C98.307 156.241 98.2502 155.989 98.2502 155.715ZM99.0811 155.331V155.715C99.0811 155.918 99.1285 156.103 99.2232 156.269C99.3203 156.434 99.4895 156.517 99.731 156.517C99.9677 156.517 100.133 156.434 100.228 156.269C100.325 156.103 100.374 155.918 100.374 155.715V155.331C100.374 155.128 100.328 154.943 100.235 154.777C100.143 154.611 99.9748 154.529 99.731 154.529C99.4943 154.529 99.3262 154.611 99.2267 154.777C99.1297 154.943 99.0811 155.128 99.0811 155.331ZM98.5875 161.24L103.588 153.968H104.436L99.4363 161.24H98.5875Z" fill="#EA5E08"/>
<path d="M123.02 99.1394C122.575 99.1394 122.175 99.0542 121.82 98.8837C121.467 98.7109 121.185 98.4742 120.975 98.1735C120.764 97.8728 120.651 97.5296 120.637 97.1437H121.703C121.729 97.4562 121.867 97.713 122.118 97.9143C122.369 98.1155 122.67 98.2161 123.02 98.2161C123.299 98.2161 123.547 98.1522 123.762 98.0244C123.98 97.8941 124.151 97.7154 124.274 97.4881C124.399 97.2609 124.462 97.0016 124.462 96.7104C124.462 96.4145 124.398 96.1505 124.27 95.9185C124.142 95.6865 123.966 95.5042 123.741 95.3717C123.518 95.2391 123.263 95.1716 122.974 95.1692C122.754 95.1692 122.532 95.2071 122.31 95.2829C122.087 95.3586 121.907 95.4581 121.77 95.5812L120.765 95.432L121.173 91.7673H125.172V92.7083H122.086L121.855 94.7431H121.898C122.04 94.6058 122.228 94.491 122.463 94.3986C122.699 94.3063 122.953 94.2601 123.222 94.2601C123.665 94.2601 124.059 94.3655 124.405 94.5762C124.753 94.7869 125.026 95.0745 125.225 95.4391C125.427 95.8013 125.526 96.218 125.524 96.6891C125.526 97.1602 125.419 97.5805 125.204 97.9498C124.991 98.3191 124.695 98.6103 124.316 98.8234C123.94 99.0341 123.508 99.1394 123.02 99.1394ZM129.353 99.1607C128.792 99.1583 128.312 99.0104 127.914 98.7168C127.517 98.4233 127.212 97.9959 127.002 97.4349C126.791 96.8738 126.686 96.1979 126.686 95.4072C126.686 94.6188 126.791 93.9453 127.002 93.3866C127.215 92.8279 127.52 92.4017 127.918 92.1082C128.318 91.8146 128.796 91.6678 129.353 91.6678C129.909 91.6678 130.386 91.8158 130.784 92.1117C131.181 92.4053 131.486 92.8314 131.696 93.3901C131.909 93.9465 132.016 94.6188 132.016 95.4072C132.016 96.2003 131.911 96.8773 131.7 97.4384C131.489 97.9971 131.185 98.4244 130.787 98.7204C130.39 99.0139 129.911 99.1607 129.353 99.1607ZM129.353 98.2126C129.845 98.2126 130.23 97.9723 130.507 97.4917C130.786 97.0111 130.926 96.3163 130.926 95.4072C130.926 94.8035 130.862 94.2933 130.734 93.8766C130.609 93.4576 130.427 93.1404 130.191 92.9249C129.956 92.7071 129.677 92.5982 129.353 92.5982C128.863 92.5982 128.478 92.8397 128.199 93.3226C127.919 93.8056 127.778 94.5004 127.776 95.4072C127.776 96.0132 127.839 96.5258 127.964 96.9448C128.092 97.3615 128.273 97.6775 128.507 97.893C128.742 98.106 129.024 98.2126 129.353 98.2126ZM137.072 97.6763V97.2928C137.072 97.0182 137.129 96.7673 137.242 96.54C137.358 96.3103 137.526 96.1269 137.747 95.9896C137.969 95.8499 138.238 95.78 138.553 95.78C138.875 95.78 139.145 95.8487 139.362 95.986C139.58 96.1233 139.745 96.3068 139.856 96.5364C139.97 96.7661 140.026 97.0182 140.026 97.2928V97.6763C140.026 97.951 139.97 98.2031 139.856 98.4327C139.742 98.66 139.575 98.8435 139.355 98.9832C139.137 99.1205 138.87 99.1891 138.553 99.1891C138.233 99.1891 137.963 99.1205 137.743 98.9832C137.523 98.8435 137.356 98.66 137.242 98.4327C137.129 98.2031 137.072 97.951 137.072 97.6763ZM137.899 97.2928V97.6763C137.899 97.8799 137.948 98.0646 138.045 98.2303C138.142 98.396 138.311 98.4789 138.553 98.4789C138.792 98.4789 138.959 98.396 139.053 98.2303C139.148 98.0646 139.195 97.8799 139.195 97.6763V97.2928C139.195 97.0892 139.149 96.9046 139.057 96.7388C138.967 96.5731 138.799 96.4903 138.553 96.4903C138.316 96.4903 138.148 96.5731 138.048 96.7388C137.949 96.9046 137.899 97.0892 137.899 97.2928ZM133.414 93.5144V93.1309C133.414 92.8563 133.471 92.6041 133.585 92.3745C133.701 92.1449 133.869 91.9614 134.089 91.8241C134.311 91.6868 134.58 91.6181 134.895 91.6181C135.217 91.6181 135.487 91.6868 135.705 91.8241C135.923 91.9614 136.087 92.1449 136.198 92.3745C136.31 92.6041 136.365 92.8563 136.365 93.1309V93.5144C136.365 93.789 136.308 94.0412 136.195 94.2708C136.084 94.4981 135.918 94.6815 135.698 94.8212C135.48 94.9585 135.212 95.0272 134.895 95.0272C134.573 95.0272 134.302 94.9585 134.082 94.8212C133.864 94.6815 133.698 94.4981 133.585 94.2708C133.471 94.0412 133.414 93.789 133.414 93.5144ZM134.245 93.1309V93.5144C134.245 93.718 134.293 93.9027 134.387 94.0684C134.484 94.2341 134.654 94.317 134.895 94.317C135.132 94.317 135.298 94.2341 135.392 94.0684C135.489 93.9027 135.538 93.718 135.538 93.5144V93.1309C135.538 92.9273 135.492 92.7426 135.399 92.5769C135.307 92.4112 135.139 92.3283 134.895 92.3283C134.658 92.3283 134.49 92.4112 134.391 92.5769C134.294 92.7426 134.245 92.9273 134.245 93.1309ZM133.752 99.04L138.752 91.7673H139.6L134.6 99.04H133.752Z" fill="#0562B9"/>
<path d="M154.2 164.36V163.565L156.661 161.015C156.923 160.738 157.14 160.495 157.31 160.287C157.483 160.076 157.612 159.876 157.697 159.687C157.783 159.497 157.825 159.296 157.825 159.083C157.825 158.842 157.768 158.633 157.655 158.458C157.541 158.28 157.386 158.144 157.19 158.05C156.993 157.953 156.772 157.904 156.526 157.904C156.265 157.904 156.038 157.957 155.844 158.064C155.65 158.17 155.5 158.321 155.396 158.515C155.292 158.709 155.24 158.936 155.24 159.197H154.192C154.192 158.754 154.294 158.367 154.498 158.035C154.701 157.704 154.981 157.447 155.336 157.265C155.691 157.08 156.095 156.988 156.547 156.988C157.004 156.988 157.406 157.079 157.754 157.261C158.105 157.441 158.378 157.687 158.575 158C158.771 158.31 158.869 158.66 158.869 159.051C158.869 159.321 158.818 159.585 158.717 159.843C158.617 160.101 158.443 160.389 158.195 160.706C157.946 161.021 157.6 161.403 157.158 161.853L155.712 163.366V163.419H158.987V164.36H154.2ZM162.733 164.459C162.288 164.459 161.888 164.374 161.533 164.204C161.18 164.031 160.898 163.794 160.688 163.494C160.477 163.193 160.364 162.85 160.35 162.464H161.415C161.442 162.776 161.58 163.033 161.831 163.234C162.082 163.436 162.383 163.536 162.733 163.536C163.012 163.536 163.26 163.472 163.475 163.344C163.693 163.214 163.863 163.035 163.987 162.808C164.112 162.581 164.175 162.322 164.175 162.03C164.175 161.735 164.111 161.471 163.983 161.239C163.855 161.007 163.679 160.824 163.454 160.692C163.231 160.559 162.976 160.492 162.687 160.489C162.467 160.489 162.245 160.527 162.023 160.603C161.8 160.679 161.62 160.778 161.483 160.901L160.478 160.752L160.886 157.087H164.885V158.028H161.799L161.568 160.063H161.611C161.753 159.926 161.941 159.811 162.175 159.719C162.412 159.626 162.665 159.58 162.935 159.58C163.378 159.58 163.772 159.686 164.118 159.896C164.466 160.107 164.739 160.395 164.938 160.759C165.139 161.121 165.239 161.538 165.237 162.009C165.239 162.48 165.132 162.9 164.917 163.27C164.704 163.639 164.408 163.93 164.029 164.143C163.653 164.354 163.221 164.459 162.733 164.459ZM170.33 162.996V162.613C170.33 162.338 170.387 162.087 170.5 161.86C170.616 161.63 170.784 161.447 171.004 161.31C171.227 161.17 171.496 161.1 171.811 161.1C172.133 161.1 172.402 161.169 172.62 161.306C172.838 161.443 173.003 161.627 173.114 161.856C173.227 162.086 173.284 162.338 173.284 162.613V162.996C173.284 163.271 173.227 163.523 173.114 163.753C173 163.98 172.833 164.163 172.613 164.303C172.395 164.44 172.128 164.509 171.811 164.509C171.491 164.509 171.221 164.44 171.001 164.303C170.781 164.163 170.614 163.98 170.5 163.753C170.387 163.523 170.33 163.271 170.33 162.996ZM171.157 162.613V162.996C171.157 163.2 171.206 163.385 171.303 163.55C171.4 163.716 171.569 163.799 171.811 163.799C172.05 163.799 172.217 163.716 172.311 163.55C172.406 163.385 172.453 163.2 172.453 162.996V162.613C172.453 162.409 172.407 162.225 172.315 162.059C172.225 161.893 172.057 161.81 171.811 161.81C171.574 161.81 171.406 161.893 171.306 162.059C171.207 162.225 171.157 162.409 171.157 162.613ZM166.672 158.834V158.451C166.672 158.176 166.729 157.924 166.843 157.695C166.959 157.465 167.127 157.281 167.347 157.144C167.569 157.007 167.838 156.938 168.153 156.938C168.475 156.938 168.745 157.007 168.963 157.144C169.18 157.281 169.345 157.465 169.456 157.695C169.567 157.924 169.623 158.176 169.623 158.451V158.834C169.623 159.109 169.566 159.361 169.453 159.591C169.341 159.818 169.176 160.002 168.955 160.141C168.738 160.279 168.47 160.347 168.153 160.347C167.831 160.347 167.56 160.279 167.34 160.141C167.122 160.002 166.956 159.818 166.843 159.591C166.729 159.361 166.672 159.109 166.672 158.834ZM167.503 158.451V158.834C167.503 159.038 167.55 159.223 167.645 159.388C167.742 159.554 167.911 159.637 168.153 159.637C168.39 159.637 168.555 159.554 168.65 159.388C168.747 159.223 168.796 159.038 168.796 158.834V158.451C168.796 158.247 168.749 158.063 168.657 157.897C168.565 157.731 168.397 157.648 168.153 157.648C167.916 157.648 167.748 157.731 167.649 157.897C167.552 158.063 167.503 158.247 167.503 158.451ZM167.009 164.36L172.009 157.087H172.858L167.858 164.36H167.009Z" fill="#338526"/>
<defs>
<filter id="filter0_d_423_4221" x="0" y="0" width="261" height="261" filterUnits="userSpaceOnUse" color-interpolation-filters="sRGB">
<feFlood flood-opacity="0" result="BackgroundImageFix"/>
<feColorMatrix in="SourceAlpha" type="matrix" values="0 0 0 0 0 0 0 0 0 0 0 0 0 0 0 0 0 0 127 0" result="hardAlpha"/>
<feOffset dy="4"/>
<feGaussianBlur stdDeviation="25"/>
<feComposite in2="hardAlpha" operator="out"/>
<feColorMatrix type="matrix" values="0 0 0 0 0 0 0 0 0 0 0 0 0 0 0 0 0 0 0.08 0"/>
<feBlend mode="normal" in2="BackgroundImageFix" result="effect1_dropShadow_423_4221"/>
<feBlend mode="normal" in="SourceGraphic" in2="effect1_dropShadow_423_4221" result="shape"/>
</filter>
<linearGradient id="paint0_linear_423_4221" x1="130.5" y1="52.6293" x2="130.523" y2="254.826" gradientUnits="userSpaceOnUse">
<stop stop-color="#75D7EF"/>
<stop offset="0.515519" stop-color="#0F70CB" stop-opacity="0.51"/>
<stop offset="1" stop-color="#0F70CB" stop-opacity="0.41"/>
</linearGradient>
</defs>
</svg>
