<svg width="319" height="319" viewBox="0 0 319 319" fill="none" xmlns="http://www.w3.org/2000/svg">
<path d="M281.173 274.456C274.642 281.242 268.463 285.618 263.581 289.076C206.193 329.72 138.288 317.872 123.855 314.979C102.544 310.707 61.3503 302.448 31.5673 267.878C-13.4912 215.576 -6.47517 133.176 28.4758 78.7819C34.87 68.8325 68.6385 13.6097 137.276 4.75447C178.814 -0.6051 227.234 10.204 262.299 39.2017C335.902 100.068 330.662 223.029 281.173 274.456Z" fill="url(#paint0_linear_102_1379)"/>
<path d="M217.418 308.162C216.866 308.088 216.371 307.8 216.039 307.358C211.195 300.914 175.974 250.49 222.848 204.398C267.346 160.642 287.516 151.657 290.199 125.949C290.513 122.946 294.625 122.225 295.978 124.932C306.089 145.16 321.842 192.361 269.71 223.342C212.203 257.517 216.915 294.981 219.697 305.627C220.065 307.035 218.878 308.358 217.418 308.162Z" fill="#0376B9"/>
<path d="M224.551 309.121C223.243 308.945 222.206 307.949 222.004 306.661C220.631 297.892 217.259 265.128 241.715 256.439C268.636 246.875 290.37 271.622 310.16 252.252C311.202 251.233 312.952 252.121 312.704 253.548C310.941 263.666 303.097 287.103 268.192 291.819C230.832 296.867 226.628 301.097 227.382 306.345C227.614 307.96 226.191 309.34 224.551 309.121Z" fill="#0376B9"/>
<path opacity="0.47" d="M288.897 152.16C288.442 154.068 287.834 155.858 287.11 157.634C286.4 159.409 285.581 161.139 284.688 162.832C282.921 166.229 280.799 169.444 278.477 172.506C273.802 178.614 268.145 183.981 261.91 188.532C258.799 190.794 255.475 192.874 252.188 194.752C248.988 196.584 245.909 198.634 242.961 200.853C237.059 205.292 231.708 210.442 226.982 216.088C217.567 227.39 210.885 241.031 208.685 255.553C207.562 262.797 207.549 270.216 208.56 277.521C209.559 284.836 211.671 291.998 214.457 298.904C214.607 299.271 214.427 299.69 214.055 299.84C213.696 299.982 213.288 299.819 213.123 299.48C209.866 292.656 207.432 285.4 206.085 277.908C205.396 274.167 204.989 270.366 204.872 266.551C204.78 262.737 204.943 258.907 205.429 255.112C206.365 247.512 208.537 240.069 211.665 233.062C214.801 226.051 218.945 219.503 223.785 213.531C228.623 207.549 234.238 202.198 240.376 197.523C243.451 195.191 246.666 193.032 250.023 191.094C253.309 189.232 256.428 187.342 259.45 185.19C265.481 180.938 271.054 176.03 275.848 170.429C278.275 167.653 280.473 164.681 282.481 161.584C284.449 158.48 286.289 155.205 287.613 151.819L287.631 151.774C287.762 151.436 288.148 151.268 288.49 151.399C288.804 151.517 288.973 151.846 288.897 152.16Z" fill="white"/>
<path opacity="0.47" d="M223 303.173C223.114 302.856 223.078 302.561 223.068 302.258L223.039 301.354L223.017 299.547C223.019 298.343 223.046 297.139 223.099 295.936C223.207 293.53 223.415 291.128 223.741 288.737C224.406 283.962 225.502 279.203 227.455 274.719C229.386 270.267 232.309 266.012 236.553 263.231C238.666 261.866 241.052 260.895 243.523 260.4C245.991 259.887 248.529 259.811 251.011 260.026C260.735 261.139 270.268 262.979 279.826 264.475C284.586 265.175 289.414 265.801 294.088 265.17C295.25 265.002 296.394 264.752 297.505 264.399C298.606 264.02 299.687 263.576 300.696 262.992C302.729 261.847 304.516 260.281 306.113 258.543L306.118 258.538C306.338 258.299 306.713 258.28 306.955 258.498C307.194 258.712 307.215 259.075 307.005 259.315C305.387 261.154 303.537 262.854 301.377 264.135C300.304 264.787 299.146 265.293 297.966 265.726C296.774 266.132 295.549 266.427 294.313 266.632C289.336 267.352 284.401 266.74 279.586 266.088C274.757 265.409 269.988 264.526 265.203 263.762C260.433 262.995 255.606 262.254 250.856 261.704C248.511 261.48 246.14 261.535 243.854 261.99C241.564 262.426 239.375 263.299 237.416 264.537C233.467 267.019 230.603 270.968 228.657 275.243C226.689 279.539 225.519 284.19 224.777 288.884C224.412 291.235 224.162 293.605 224.011 295.984C223.936 297.173 223.888 298.364 223.864 299.555L223.851 301.341L223.862 302.234C223.87 302.529 223.857 302.833 224.004 303.113C224.144 303.38 224.039 303.707 223.769 303.845C223.499 303.983 223.167 303.879 223.027 303.613C222.955 303.474 222.949 303.319 222.997 303.183L223 303.173Z" fill="white"/>
<path d="M172.187 3.6203C157.534 3.50644 142.755 5.79966 129.679 11.1547C99.2409 23.6205 73.4078 56.6057 83.5177 90.2981C86.8019 101.243 85.0761 113.318 96.1228 118.074C102.099 120.647 118.376 122.18 124.565 120.151C141.014 114.761 151.825 100.007 142.879 83.6473C140.015 78.4084 136.306 73.6216 133.833 68.1925C131.36 62.7635 130.232 56.3177 132.753 50.9091C137.704 40.2924 154.151 36.9175 164.816 37.2363C177.403 37.6121 188.81 43.7573 195.584 54.3011C204.027 67.441 206.165 83.423 204.93 98.675C203.608 114.995 196.636 127.459 186.188 139.978C177.192 150.758 167.287 161.103 161.309 173.76C155.82 185.38 154.026 198.255 153.778 210.966C153.73 213.43 141.316 236.65 141.369 243.743C141.377 244.745 155.449 248.066 156.464 248.077C161.762 248.135 176.768 248.301 182.291 248.362C183.427 248.374 184.363 247.478 184.376 246.357C184.769 211.846 195.524 178.942 222.748 155.764C232.654 147.33 243.322 140.462 251.026 129.817C262.004 114.644 267.42 99.7123 265.857 80.9874C264.429 63.8851 258.724 46.7747 247.431 33.505C235.292 19.2436 217.526 10.3371 199.062 6.49423C190.451 4.70315 181.344 3.6909 172.187 3.6203Z" fill="url(#paint1_linear_102_1379)"/>
<path d="M199.207 287.049C199.207 302.92 190.295 316.959 174.217 316.959C170.744 316.959 158.931 316.991 155.843 315.89C144.635 311.893 144.595 303.393 144.595 290.952C144.595 275.082 150.023 259.475 166.102 259.475C182.179 259.475 199.207 271.179 199.207 287.049Z" fill="url(#paint2_linear_102_1379)"/>
<path d="M158.264 0.00403102C143.611 -0.109833 128.832 2.18339 115.756 7.5384C85.318 20.0042 59.4849 52.9895 69.5948 86.6818C72.879 97.6264 80.4719 111.404 91.5185 116.16C97.4951 118.733 104.453 118.563 110.642 116.535C127.091 111.144 137.902 96.391 128.956 80.031C126.092 74.7921 122.383 70.0053 119.91 64.5762C117.437 59.1461 116.309 52.7014 118.83 47.2928C123.782 36.6762 140.228 33.3012 150.893 33.6201C163.481 33.9958 174.887 40.1411 181.661 50.6848C190.104 63.8247 192.243 79.8067 191.007 95.0587C189.685 111.379 182.713 123.842 172.265 136.362C163.269 147.141 153.364 157.487 147.386 170.144C141.897 181.764 140.103 194.638 139.855 207.35C139.807 209.814 140.648 235.543 140.701 242.637C140.709 243.639 141.526 244.448 142.541 244.46C147.839 244.518 162.845 244.684 168.368 244.744C169.505 244.757 170.44 243.861 170.453 242.739C170.846 208.228 181.601 175.325 208.825 152.147C218.731 143.713 229.399 136.844 237.103 126.199C248.081 111.027 253.497 96.0949 251.934 77.37C250.506 60.2676 244.802 43.1573 233.508 29.8876C221.369 15.6262 203.603 6.71972 185.139 2.87682C176.529 1.08688 167.421 0.0746266 158.264 0.00403102Z" fill="url(#paint3_linear_102_1379)"/>
<path d="M159.783 316.071C175.861 316.071 188.895 303.206 188.895 287.336C188.895 271.466 175.861 258.601 159.783 258.601C143.706 258.601 130.672 271.466 130.672 287.336C130.672 303.206 143.706 316.071 159.783 316.071Z" fill="url(#paint4_linear_102_1379)"/>
<path opacity="0.63" d="M79.2306 83.3809C79.0587 83.3809 78.9041 83.2636 78.8661 83.0917C76.8254 73.9996 76.5266 59.761 86.685 43.5627C96.5999 27.7538 110.509 17.1747 128.023 12.1215C146.747 6.71975 168.975 7.87661 194.095 15.559C194.292 15.6194 194.403 15.8254 194.342 16.0202C194.281 16.2149 194.07 16.3242 193.875 16.2638C145.616 1.50365 107.775 11.3369 87.3206 43.9521C77.2938 59.9386 77.5856 73.9746 79.5963 82.9334C79.6413 83.1327 79.5132 83.3285 79.3125 83.3729C79.2848 83.3786 79.2571 83.3809 79.2306 83.3809Z" fill="white"/>
<path opacity="0.63" d="M85.355 98.0101C85.2396 98.0101 85.1266 97.9577 85.0528 97.8586C84.9639 97.7391 82.8667 94.8777 80.9149 89.8392C80.8411 89.6491 80.938 89.4361 81.1306 89.3633C81.3221 89.2904 81.539 89.3849 81.6128 89.5762C83.5254 94.5156 85.6342 97.3952 85.6549 97.4237C85.7761 97.5876 85.7403 97.8188 85.573 97.9384C85.5084 97.9873 85.4311 98.0101 85.355 98.0101Z" fill="white"/>
<path opacity="0.63" d="M169.524 268.711C169.468 268.711 169.41 268.699 169.356 268.672C166.373 267.178 163.152 266.42 159.783 266.42C159.577 266.42 159.41 266.255 159.41 266.052C159.41 265.848 159.577 265.683 159.783 265.683C163.271 265.683 166.606 266.467 169.694 268.013C169.877 268.106 169.951 268.328 169.858 268.509C169.792 268.637 169.66 268.711 169.524 268.711Z" fill="white"/>
<path opacity="0.63" d="M147.726 305.353C147.655 305.353 147.582 305.332 147.517 305.289C141.461 301.25 137.846 294.539 137.846 287.335C137.846 279.349 142.278 272.035 149.41 268.25C149.591 268.154 149.819 268.221 149.917 268.401C150.015 268.581 149.947 268.804 149.764 268.901C142.873 272.557 138.592 279.62 138.592 287.335C138.592 294.293 142.085 300.778 147.935 304.679C148.106 304.793 148.151 305.022 148.035 305.191C147.965 305.296 147.846 305.353 147.726 305.353Z" fill="white"/>
<g opacity="0.3">
<path d="M62.9417 53.758C62.636 54.1315 62.0811 54.1884 61.7027 53.8867C60.9679 53.2991 60.1962 52.7355 59.4094 52.2095C59.0114 51.943 58.9042 51.4124 59.1649 51.0162C59.1683 51.0116 59.1706 51.007 59.1741 51.0014C59.4463 50.604 59.9943 50.5004 60.398 50.7691C61.2263 51.3225 62.0384 51.9168 62.8113 52.5351C63.1655 52.8175 63.2393 53.3151 62.9959 53.684C62.9797 53.7102 62.9624 53.7341 62.9417 53.758ZM55.4019 49.9083C54.5506 49.4927 53.6727 49.1101 52.7925 48.7696C52.3403 48.5943 52.1166 48.0899 52.2942 47.6424C52.4742 47.1937 52.9829 46.9751 53.4362 47.1505C54.3626 47.5092 55.2866 47.9122 56.1829 48.3483C56.6189 48.5613 56.7977 49.0827 56.5832 49.5132C56.567 49.5439 56.5497 49.5746 56.5313 49.6031C56.2902 49.9675 55.8068 50.1064 55.4019 49.9083ZM48.3709 47.401C47.4492 47.1846 46.5079 47.0036 45.57 46.8658C45.089 46.7952 44.7568 46.3523 44.8283 45.8775C44.901 45.4027 45.3485 45.0747 45.8296 45.1453C46.817 45.2911 47.8091 45.4801 48.7793 45.709C49.2522 45.8205 49.5441 46.2897 49.4322 46.7565C49.408 46.8556 49.3676 46.9478 49.3145 47.0286C49.1173 47.3292 48.7435 47.4887 48.3709 47.401ZM40.9488 46.5094C40.0006 46.5015 39.0408 46.5333 38.096 46.6062C37.6104 46.6426 37.187 46.2851 37.1501 45.8057C37.1132 45.3264 37.4766 44.9096 37.9611 44.8721C38.9554 44.7969 39.966 44.7628 40.9638 44.7707C41.4506 44.7753 41.8417 45.1681 41.8371 45.6475C41.8359 45.8194 41.784 45.9788 41.6952 46.1132C41.5371 46.3534 41.2614 46.5117 40.9488 46.5094ZM33.5094 47.2712C32.5854 47.4704 31.6568 47.7118 30.7489 47.9885C30.284 48.1297 29.7903 47.8735 29.6473 47.4146C29.5031 46.9558 29.7638 46.4684 30.2287 46.3272C31.1827 46.0358 32.1609 45.7818 33.1334 45.5723C33.6086 45.4698 34.0781 45.767 34.182 46.2362C34.2339 46.473 34.1843 46.7075 34.0597 46.8954C33.9386 47.081 33.7459 47.2211 33.5094 47.2712ZM26.4265 49.6395C25.5682 50.0369 24.7169 50.4742 23.8967 50.9421C23.4757 51.1824 22.9369 51.0389 22.6935 50.6233C22.4501 50.2077 22.5943 49.676 23.0165 49.4357C23.8806 48.9438 24.7769 48.4827 25.6801 48.0648C26.1208 47.861 26.6457 48.0489 26.8522 48.4838C26.986 48.7662 26.9525 49.0839 26.7922 49.3276C26.7045 49.4585 26.5811 49.5678 26.4265 49.6395ZM6.57122 75.3033C6.09018 75.2316 5.75911 74.7887 5.83178 74.3138C5.98059 73.3414 6.17439 72.3611 6.40857 71.4024C6.52277 70.9355 6.99804 70.6474 7.47101 70.7602C7.94397 70.8717 8.23467 71.342 8.12162 71.8088C7.90014 72.7198 7.71557 73.65 7.57483 74.5735C7.55522 74.6998 7.50908 74.816 7.44332 74.9173C7.2599 75.194 6.92421 75.3557 6.57122 75.3033ZM20.0565 53.4961C19.3101 54.0711 18.5799 54.6849 17.8855 55.3213C17.529 55.6481 16.9718 55.6276 16.6408 55.2758C16.3097 54.924 16.3316 54.3751 16.6869 54.0472C17.4171 53.3777 18.1865 52.7309 18.9733 52.1252C19.3574 51.8303 19.91 51.8975 20.2099 52.2766C20.4475 52.5772 20.4533 52.9826 20.2537 53.2855C20.2018 53.3629 20.1349 53.4346 20.0565 53.4961ZM8.37425 67.9363C7.92205 67.7598 7.69941 67.2554 7.87822 66.8079C8.2439 65.8925 8.65457 64.9816 9.09754 64.098C9.31211 63.6664 9.84275 63.4922 10.2788 63.7051C10.7149 63.9181 10.8925 64.4407 10.6768 64.8711C10.2557 65.7103 9.86467 66.5768 9.51744 67.4467C9.49553 67.5025 9.46784 67.5538 9.43554 67.6016C9.21175 67.942 8.76993 68.0912 8.37425 67.9363ZM14.7189 58.6598C14.1214 59.3852 13.548 60.1446 13.0151 60.9189C12.7417 61.3163 12.1937 61.4188 11.7911 61.1489C11.3943 60.8825 11.287 60.3519 11.5477 59.9568C11.5512 59.9511 11.5547 59.9465 11.5581 59.9419C12.1199 59.1267 12.7232 58.3262 13.3508 57.5633C13.6576 57.191 14.2125 57.1341 14.5909 57.4369C14.9438 57.7193 15.0165 58.2169 14.7743 58.5847C14.7581 58.6097 14.7385 58.6348 14.7189 58.6598Z" fill="#083A81"/>
<path d="M7.07659 81.0125C7.17119 80.869 7.22425 80.696 7.21848 80.5126C7.20464 80.064 7.19887 79.6086 7.20349 79.1577C7.2081 78.6772 6.81704 78.2843 6.33138 78.2798C5.84458 78.2752 5.44659 78.6612 5.44198 79.1417C5.43737 79.6165 5.44313 80.0959 5.45813 80.5673C5.47313 81.0467 5.88034 81.4247 6.36599 81.4087C6.66477 81.3996 6.92432 81.2436 7.07659 81.0125Z" fill="#083A81"/>
</g>
<g opacity="0.3">
<path d="M18.3361 105.082C18.568 104.73 18.5126 104.254 18.1873 103.964C17.8504 103.663 17.5136 103.35 17.1883 103.035C16.8411 102.698 16.2827 102.704 15.9424 103.046C15.5998 103.39 15.6067 103.94 15.954 104.276C16.2977 104.609 16.6507 104.938 17.006 105.254C17.3671 105.576 17.9243 105.549 18.2507 105.193C18.283 105.157 18.3107 105.121 18.3361 105.082Z" fill="#083A81"/>
<path d="M69.1402 99.874C68.8553 100.263 68.305 100.351 67.9105 100.07C67.516 99.7886 67.4272 99.2466 67.7121 98.8561C68.2543 98.1148 68.7734 97.3394 69.2602 96.5424C69.5094 96.1324 70.0527 95.9992 70.4692 96.2463C70.8856 96.4945 71.0194 97.0286 70.7691 97.4396C70.558 97.7846 70.3423 98.1251 70.1208 98.461C69.8047 98.9403 69.4748 99.4151 69.1402 99.874ZM71.805 93.6798C71.3586 93.4897 71.1521 92.9784 71.3447 92.5378C71.7139 91.6906 72.0519 90.8196 72.3472 89.9485C72.5006 89.493 73.0012 89.2471 73.4627 89.3997C73.9241 89.5523 74.1721 90.0453 74.0187 90.5007C73.7072 91.4185 73.3519 92.3362 72.9632 93.2266C72.9436 93.2733 72.9193 93.3166 72.8928 93.3576C72.6621 93.7049 72.2053 93.8495 71.805 93.6798ZM66.0694 103.517C65.3923 104.216 64.6759 104.897 63.9388 105.54C63.5743 105.858 63.0171 105.825 62.6952 105.465C62.3734 105.105 62.408 104.556 62.7725 104.237C63.4727 103.627 64.1522 102.981 64.7947 102.316C65.1304 101.969 65.6887 101.957 66.0406 102.288C66.3521 102.582 66.397 103.046 66.1709 103.39C66.1421 103.435 66.1086 103.477 66.0694 103.517ZM74.1987 86.6055C73.7211 86.5166 73.405 86.0623 73.495 85.5909C73.6668 84.6857 73.8018 83.7634 73.8964 82.8479C73.9449 82.3697 74.3775 82.0224 74.862 82.0703C75.3465 82.1181 75.6983 82.5451 75.6498 83.0233C75.5506 83.9866 75.4087 84.959 75.2276 85.912C75.2057 86.027 75.1619 86.1329 75.1007 86.2252C74.9116 86.5109 74.5597 86.6726 74.1987 86.6055ZM60.1355 108.424C59.3199 108.959 58.4697 109.467 57.608 109.935C57.1812 110.166 56.6459 110.012 56.4117 109.592C56.1775 109.171 56.3333 108.643 56.7589 108.412C57.5768 107.967 58.3855 107.485 59.1595 106.977C59.5644 106.712 60.1112 106.82 60.3812 107.219C60.5819 107.518 60.5715 107.893 60.3858 108.175C60.3235 108.271 60.2381 108.357 60.1355 108.424ZM53.2544 111.929C52.3373 112.276 51.3948 112.589 50.4535 112.859C49.9863 112.993 49.4972 112.728 49.3611 112.267C49.225 111.805 49.4938 111.323 49.9609 111.19C50.8561 110.932 51.7513 110.635 52.6222 110.306C53.0767 110.134 53.5866 110.359 53.7608 110.807C53.8658 111.077 53.8254 111.367 53.6766 111.593C53.5797 111.74 53.4344 111.86 53.2544 111.929ZM45.7631 113.869C44.7906 114.011 43.802 114.114 42.8238 114.175C42.3381 114.206 41.9194 113.842 41.8883 113.362C41.8571 112.883 42.2262 112.47 42.7119 112.44C43.6417 112.382 44.5807 112.284 45.5047 112.15C45.9857 112.079 46.4345 112.408 46.5048 112.883C46.5371 113.102 46.4852 113.312 46.3722 113.484C46.2407 113.685 46.0238 113.831 45.7631 113.869ZM38.0215 114.151C37.0421 114.08 36.0535 113.967 35.0845 113.814C34.6046 113.739 34.277 113.293 34.3531 112.818C34.4293 112.344 34.8815 112.021 35.3625 112.096C36.2819 112.241 37.2209 112.349 38.1518 112.416C38.6375 112.451 39.0009 112.868 38.9651 113.348C38.9536 113.499 38.904 113.638 38.8255 113.756C38.6559 114.014 38.3537 114.175 38.0215 114.151ZM30.4021 112.745C29.4643 112.463 28.5264 112.138 27.6151 111.777C27.1629 111.599 26.9437 111.093 27.1237 110.647C27.3036 110.203 27.817 109.984 28.268 110.162C29.1344 110.503 30.0249 110.813 30.9155 111.08C31.3804 111.221 31.6434 111.707 31.5015 112.166C31.4773 112.245 31.4415 112.319 31.3977 112.387C31.19 112.705 30.7863 112.861 30.4021 112.745ZM23.2892 109.727C22.6605 109.375 22.0353 109 21.4308 108.613C21.2116 108.473 20.9948 108.331 20.7802 108.186C20.3788 107.916 20.2634 107.374 20.5483 106.978C20.8217 106.581 21.3697 106.478 21.7723 106.749C21.9764 106.886 22.1829 107.022 22.3906 107.156C22.9651 107.525 23.5591 107.881 24.1567 108.215C24.5801 108.451 24.7289 108.982 24.4889 109.4C24.4797 109.416 24.4705 109.431 24.4601 109.445C24.2098 109.827 23.6964 109.954 23.2892 109.727Z" fill="#083A81"/>
<path d="M75.6617 78.7682C75.7575 78.6236 75.8094 78.4494 75.8036 78.2638C75.7863 77.7935 75.7586 77.3142 75.7206 76.8405C75.6825 76.3611 75.2591 76.0036 74.7735 76.0412C74.2878 76.0787 73.9256 76.4966 73.9637 76.976C73.9994 77.4269 74.026 77.8812 74.0421 78.3287C74.0594 78.8081 74.4678 79.1838 74.9546 79.1656C75.2534 79.1531 75.5106 78.9971 75.6617 78.7682Z" fill="#083A81"/>
</g>
<path d="M64.6111 68.6059C64.5569 68.4408 64.4034 68.3269 64.2281 68.3235L59.2181 68.2153C58.0149 66.2341 56.4818 64.4282 54.6488 62.8865L55.364 57.9938C55.3894 57.8218 55.3006 57.6533 55.1449 57.5748L49.8004 54.8591C49.6446 54.7794 49.4543 54.8067 49.3274 54.9263L45.7086 58.3445C43.3727 57.7672 40.9928 57.5861 38.6603 57.7706L35.6587 53.8093C35.5537 53.6704 35.3703 53.6123 35.2031 53.6658L29.479 55.4762C29.3118 55.5286 29.1964 55.6812 29.1929 55.8543L29.0834 60.7994C27.0761 61.987 25.2466 63.5002 23.6846 65.3095L18.7277 64.6036C18.5536 64.5785 18.3828 64.6651 18.3032 64.8199L15.552 70.0952C15.4712 70.2489 15.4989 70.4368 15.6212 70.5621L19.0842 74.134C18.4993 76.4397 18.3159 78.7887 18.5028 81.0911L14.4895 84.0538C14.3488 84.1574 14.29 84.3385 14.3442 84.5036L16.1784 90.1535C16.2314 90.3186 16.386 90.4325 16.5613 90.4359L21.5713 90.544C22.7745 92.5253 24.3076 94.3312 26.1406 95.8729L25.4254 100.766C25.4 100.938 25.4877 101.106 25.6446 101.185L30.9891 103.9C31.1448 103.98 31.3351 103.953 31.462 103.832L35.0808 100.414C37.4168 100.991 39.7966 101.172 42.1291 100.988L45.1307 104.949C45.2357 105.088 45.4191 105.146 45.5864 105.092L51.3104 103.282C51.4776 103.23 51.593 103.077 51.5965 102.904L51.7061 97.9589C53.7133 96.7713 55.5428 95.258 57.1048 93.4487L62.0617 94.1547C62.2359 94.1797 62.4066 94.092 62.4862 93.9383L65.2375 88.663C65.3182 88.5093 65.2905 88.3214 65.1682 88.1962L61.7052 84.6243C62.2901 82.3185 62.4735 79.9695 62.2866 77.6672L66.2999 74.7044C66.4406 74.6008 66.4995 74.4198 66.4452 74.2547L64.6111 68.6059Z" fill="#083A81"/>
<path d="M44.9256 83.3251C42.7223 85.7914 38.897 86.0293 36.3973 83.8545C35.186 82.8013 34.4639 81.345 34.3624 79.7554C34.2608 78.1659 34.7926 76.6322 35.8608 75.4366C38.0642 72.9703 41.8894 72.7323 44.3892 74.9071C46.6629 76.8861 47.0666 80.1893 45.462 82.6271C45.304 82.8685 45.1252 83.1019 44.9256 83.3251ZM35.7697 79.6678C35.847 80.8872 36.4019 82.0031 37.3293 82.8104C39.2454 84.4774 42.179 84.2952 43.8678 82.4039C45.5578 80.5126 45.372 77.6171 43.456 75.9501C41.5399 74.2831 38.6063 74.4653 36.9175 76.3566C36.7641 76.5285 36.6257 76.7084 36.5022 76.8963C35.9647 77.7139 35.7074 78.676 35.7697 79.6678Z" fill="#0076BF"/>
<path d="M52.7129 87.423C52.9886 87.004 53.2447 86.5691 53.4789 86.1193C53.5527 85.9781 53.6242 85.8346 53.6935 85.6912C54.0349 84.9818 54.3187 84.2462 54.5402 83.4959C54.5436 83.4856 54.5459 83.4754 54.5494 83.4651C54.5575 83.4367 54.5667 83.4071 54.5748 83.3775C54.5909 83.3205 54.6071 83.2636 54.6221 83.2078C54.6625 83.0586 54.599 82.9061 54.4744 82.8252C54.4444 82.8059 54.4098 82.7911 54.3729 82.7808C54.1849 82.7307 53.9922 82.8412 53.9415 83.0268C53.6808 83.9809 53.3151 84.9146 52.8525 85.8005C50.558 90.2024 46.2068 92.8908 41.5498 93.3166C38.9589 93.5535 36.2734 93.0889 33.7932 91.8296C33.3583 91.6087 32.9372 91.3673 32.5335 91.1077C29.811 89.361 27.7969 86.7649 26.7922 83.6712C25.6386 80.1175 25.9558 76.3338 27.6862 73.0158C31.2599 66.1646 39.8079 63.4627 46.7466 66.9879C47.1746 67.2054 47.5899 67.4433 47.9902 67.7007C49.7263 68.8154 51.1971 70.2922 52.2907 72.0309C52.3195 72.0753 52.3553 72.1118 52.398 72.1391C52.5087 72.2097 52.6564 72.2165 52.7764 72.1425C52.9413 72.0412 52.9932 71.8271 52.8894 71.6631C51.7416 69.8379 50.1981 68.2871 48.3743 67.1166C47.9533 66.8467 47.5184 66.5973 47.0696 66.3685C39.7848 62.6679 30.8077 65.5088 27.0598 72.697C25.2441 76.1801 24.9107 80.1528 26.1219 83.883C27.1763 87.1304 29.2908 89.8563 32.1493 91.6907C32.5739 91.9628 33.0157 92.2156 33.4713 92.4478C37.0001 94.2401 41.0249 94.5691 44.804 93.3736C48.0929 92.334 50.8545 90.2457 52.7129 87.423Z" fill="#0076BF"/>
<g opacity="0.3">
<path d="M98.8454 41.2887C98.9734 41.094 98.963 40.8321 98.8015 40.6465C98.5005 40.3004 98.1855 39.9588 97.8637 39.6309C97.6549 39.4179 97.3111 39.4123 97.0943 39.6184C96.8774 39.8244 96.8728 40.1649 97.0816 40.3778C97.3884 40.6898 97.6883 41.0166 97.9756 41.3468C98.1705 41.5723 98.5143 41.5973 98.7427 41.4049C98.7842 41.3696 98.8177 41.3309 98.8454 41.2887Z" fill="#083A81"/>
<path d="M95.8069 38.458C95.6177 38.6892 95.2763 38.7256 95.0421 38.5389C94.4515 38.0698 93.8297 37.6246 93.1929 37.2169C93.0591 37.1304 92.923 37.0461 92.7869 36.9619C92.5319 36.8059 92.4535 36.4745 92.6115 36.2229C92.7707 35.9906 93.1053 35.8938 93.3613 36.0498C93.5044 36.1375 93.6463 36.2263 93.787 36.3163C94.4538 36.7433 95.1055 37.2101 95.725 37.7031C95.9442 37.8773 95.9903 38.1848 95.8404 38.4136C95.83 38.4284 95.8185 38.4432 95.8069 38.458ZM90.354 35.6684C89.52 35.2869 88.6536 34.9533 87.7804 34.6766C87.4943 34.5855 87.3362 34.2838 87.4285 34.0014C87.5197 33.7202 87.8265 33.563 88.1126 33.6541C89.0274 33.9433 89.9352 34.2929 90.8108 34.6937C91.083 34.8178 91.2019 35.1378 91.0761 35.4065C91.0646 35.4304 91.0519 35.4532 91.038 35.4737C90.8939 35.6946 90.6032 35.7811 90.354 35.6684ZM85.1018 34.0071C84.1997 33.8397 83.2768 33.727 82.3597 33.6701C82.0598 33.6518 81.8314 33.3968 81.8499 33.1007C81.8683 32.8036 82.1256 32.5793 82.4266 32.5975C83.3887 32.6555 84.3566 32.7751 85.3025 32.9504C85.5978 33.0051 85.7928 33.2863 85.7374 33.5778C85.7235 33.6484 85.697 33.7145 85.6589 33.7714C85.5424 33.949 85.3244 34.0481 85.1018 34.0071ZM79.5958 33.6712C78.6775 33.727 77.7547 33.8409 76.8537 34.0071C76.5584 34.0618 76.2735 33.8693 76.2181 33.5778C76.1627 33.2875 76.3565 33.0062 76.6518 32.9504C77.5966 32.7751 78.5645 32.6567 79.5266 32.5986C79.8265 32.5804 80.0849 32.8058 80.1033 33.1019C80.1103 33.2214 80.078 33.3342 80.0168 33.4275C79.928 33.5653 79.7746 33.661 79.5958 33.6712ZM74.174 34.6721C73.2984 34.9465 72.4309 35.2778 71.5969 35.6547C71.3247 35.7788 71.0005 35.6604 70.8759 35.3906C70.7502 35.1207 70.8701 34.8019 71.1435 34.6789C72.018 34.2827 72.9258 33.9365 73.8441 33.6484C74.1301 33.5585 74.437 33.7156 74.527 33.998C74.5789 34.1574 74.55 34.3236 74.4647 34.4535C74.3989 34.5537 74.2986 34.6334 74.174 34.6721ZM69.1629 36.9425C68.3819 37.4185 67.624 37.9479 66.9088 38.515C66.6746 38.7006 66.332 38.6641 66.144 38.433C65.9559 38.2019 65.9928 37.8648 66.227 37.6781C66.9757 37.0837 67.7717 36.5281 68.5907 36.0293C68.8468 35.8733 69.1813 35.9519 69.3394 36.2035C69.4536 36.3857 69.4432 36.61 69.3324 36.7786C69.2909 36.8423 69.2332 36.8992 69.1629 36.9425ZM64.867 40.3516C64.2302 41.0006 63.6257 41.6975 63.072 42.4239C62.8909 42.6608 62.5494 42.7074 62.3095 42.5298C62.0696 42.3511 62.0246 42.0174 62.2022 41.7772C62.7836 41.0166 63.4169 40.2856 64.0848 39.6047C64.2936 39.3917 64.6386 39.386 64.8543 39.5921C65.0446 39.7732 65.0711 40.059 64.9316 40.2696C64.9143 40.2981 64.8923 40.3254 64.867 40.3516ZM59.6044 47.426C59.3275 47.3098 59.1983 46.9956 59.316 46.7223C59.6401 45.9662 60.0116 45.2147 60.4199 44.4906C60.4811 44.3801 60.5445 44.2708 60.608 44.1626C60.7499 43.903 61.0913 43.8176 61.352 43.9668C61.6127 44.1148 61.7004 44.4439 61.5504 44.7012C61.4905 44.8025 61.4316 44.9062 61.3728 45.0109C60.9829 45.7043 60.6276 46.4205 60.3184 47.1424C60.3057 47.172 60.2907 47.2005 60.2734 47.2267C60.1304 47.4385 59.8501 47.5296 59.6044 47.426Z" fill="#083A81"/>
</g>
<g opacity="0.3">
<path d="M100.488 68.665C99.961 69.4427 99.3807 70.1965 98.7647 70.9036C98.5686 71.1279 98.2249 71.1541 97.9976 70.9605C97.7692 70.7669 97.7473 70.4276 97.9399 70.2033C98.5282 69.5292 99.0808 68.8108 99.5838 68.0684C99.751 67.8213 100.089 67.7552 100.338 67.9203C100.586 68.0843 100.654 68.4134 100.493 68.6593C100.49 68.6605 100.489 68.6627 100.488 68.665ZM101.195 66.472C100.928 66.3376 100.82 66.0143 100.957 65.7501C101.365 64.9542 101.729 64.1264 102.039 63.2884C102.141 63.0117 102.454 62.8659 102.736 62.9673C103.019 63.0686 103.164 63.376 103.062 63.655C102.738 64.5329 102.357 65.4017 101.928 66.2352C101.919 66.2522 101.909 66.2693 101.898 66.2853C101.748 66.5141 101.446 66.5984 101.195 66.472ZM96.7771 72.9212C96.0746 73.5509 95.3282 74.1441 94.5565 74.6827C94.3108 74.8547 93.9716 74.7966 93.7974 74.5552C93.6233 74.3127 93.6821 73.979 93.9266 73.806C94.6626 73.2913 95.3755 72.7265 96.0458 72.1253C96.2684 71.9261 96.6122 71.942 96.814 72.1618C96.9836 72.3462 96.9998 72.6161 96.8682 72.8153C96.8429 72.8541 96.8129 72.8894 96.7771 72.9212ZM103.218 61.3606C102.925 61.2946 102.742 61.0054 102.809 60.7162C103.012 59.8462 103.162 58.957 103.257 58.07C103.288 57.7751 103.557 57.561 103.854 57.5917C104.153 57.6225 104.37 57.8867 104.339 58.1816C104.241 59.1118 104.083 60.0455 103.869 60.9576C103.854 61.0202 103.829 61.0783 103.795 61.1295C103.674 61.314 103.446 61.4119 103.218 61.3606ZM92.1363 76.1641C91.3034 76.6082 90.4336 77.0055 89.5511 77.3471C89.2708 77.4553 88.9559 77.3187 88.8463 77.0431C88.7367 76.7664 88.874 76.4556 89.1543 76.3474C89.9953 76.0229 90.8247 75.6426 91.6195 75.219C91.8837 75.0778 92.2136 75.1758 92.3566 75.4376C92.4547 75.6164 92.4385 75.8259 92.3336 75.9853C92.2863 76.0571 92.2194 76.1197 92.1363 76.1641ZM86.8426 78.2136C85.9243 78.4482 84.983 78.6292 84.0463 78.7522C83.7487 78.7909 83.4753 78.5848 83.4361 78.2911C83.3957 77.9973 83.6056 77.7274 83.9033 77.6876C84.7973 77.5703 85.6948 77.3972 86.5715 77.1741C86.8622 77.1 87.1598 77.2731 87.2348 77.5601C87.274 77.7115 87.244 77.8652 87.1644 77.987C87.0906 78.0952 86.9787 78.1795 86.8426 78.2136ZM81.2016 78.9537C80.2522 78.964 79.2947 78.9173 78.3546 78.8137C78.0558 78.7807 77.8401 78.5154 77.8735 78.2205C77.907 77.9256 78.1758 77.7138 78.4746 77.7457C79.3709 77.8447 80.2845 77.8891 81.1889 77.8789C81.49 77.8755 81.7357 78.1134 81.7392 78.4106C81.7403 78.5211 81.708 78.6235 81.6515 78.7089C81.5569 78.8547 81.3908 78.9515 81.2016 78.9537Z" fill="#083A81"/>
<path d="M104.374 55.6481C104.432 55.5616 104.464 55.4568 104.462 55.3464C104.454 54.8863 104.431 54.4252 104.395 53.9743C104.372 53.6783 104.11 53.4574 103.81 53.4801C103.511 53.504 103.288 53.7614 103.31 54.0574C103.343 54.4867 103.365 54.9273 103.373 55.3657C103.379 55.6618 103.627 55.8986 103.927 55.8929C104.116 55.8884 104.28 55.7927 104.374 55.6481Z" fill="#083A81"/>
</g>
<path d="M97.0068 48.461C96.9711 48.3505 96.8684 48.2743 96.7507 48.272L93.3985 48.1991C92.5933 46.8737 91.5677 45.6645 90.3403 44.634L90.8191 41.3604C90.8364 41.2454 90.7764 41.1327 90.6726 41.0803L87.0965 39.2631C86.9915 39.2095 86.8646 39.2278 86.7804 39.3086L84.3591 41.5961C82.796 41.2101 81.2029 41.0883 79.6421 41.2124L77.6337 38.5617C77.5634 38.4683 77.4411 38.4307 77.3292 38.466L73.4982 39.6775C73.3863 39.7128 73.309 39.8142 73.3067 39.9303L73.2329 43.2392C71.8901 44.034 70.665 45.0462 69.621 46.2577L66.3045 45.7852C66.188 45.7681 66.0738 45.8262 66.0207 45.9298L64.1796 49.4596C64.1254 49.5632 64.1439 49.6884 64.2258 49.7716L66.5433 52.1616C66.1522 53.7044 66.0288 55.2769 66.1545 56.8175L63.469 58.7998C63.3744 58.8693 63.3352 58.99 63.3721 59.1004L64.5995 62.8819C64.6353 62.9923 64.738 63.0686 64.8556 63.0709L68.2079 63.1437C69.0131 64.4691 70.0386 65.6784 71.266 66.7088L70.7873 69.9824C70.77 70.0974 70.8288 70.2101 70.9338 70.2625L74.5099 72.0798C74.6149 72.1333 74.7417 72.1151 74.826 72.0342L77.2473 69.7467C78.8104 70.1327 80.4035 70.2545 81.9643 70.1304L83.9726 72.7812C84.043 72.8745 84.1653 72.9121 84.2772 72.8768L88.1082 71.6653C88.2201 71.63 88.2974 71.5287 88.2997 71.4125L88.3735 68.1037C89.7163 67.3089 90.9414 66.2966 91.9853 65.0851L95.3019 65.5577C95.4184 65.5747 95.5326 65.5155 95.5856 65.413L97.4267 61.8833C97.4809 61.7796 97.4625 61.6544 97.3806 61.5713L95.0631 59.1813C95.4541 57.6384 95.5776 56.066 95.4518 54.5254L98.1373 52.543C98.2319 52.4736 98.27 52.3529 98.2342 52.2424L97.0068 48.461Z" fill="#083A81"/>
<path d="M83.8897 58.3569C83.163 59.171 82.1582 59.6572 81.06 59.7255C79.963 59.7938 78.9052 59.4363 78.0803 58.7178C76.3777 57.2365 76.215 54.6688 77.7147 52.9836C79.2166 51.3041 81.8214 51.1425 83.5241 52.6227C84.3489 53.34 84.8414 54.3318 84.9106 55.4146C84.9672 56.2948 84.7376 57.1499 84.2589 57.8764C84.1481 58.0437 84.0247 58.2043 83.8897 58.3569ZM78.799 57.9117C79.4058 58.44 80.1845 58.703 80.992 58.6529C81.7983 58.6028 82.5378 58.2453 83.073 57.6464C83.6071 57.0474 83.8747 56.2789 83.824 55.4818C83.7732 54.6859 83.411 53.956 82.8042 53.4277C81.5526 52.338 79.6354 52.4564 78.5314 53.693C78.4322 53.8046 78.3422 53.9219 78.2626 54.0426C77.4574 55.2643 77.6605 56.921 78.799 57.9117Z" fill="#0076BF"/>
<path d="M89.309 61.2092C89.497 60.9246 89.6712 60.6274 89.8315 60.3188C90.1511 59.7062 90.4072 59.0617 90.5952 58.4002C90.6033 58.3706 90.6113 58.341 90.6194 58.3114C90.6829 58.0814 90.5837 57.8457 90.391 57.7216C90.3437 57.692 90.2918 57.668 90.2353 57.6532C89.9446 57.5758 89.6481 57.7466 89.5685 58.0324C89.4001 58.6518 89.1625 59.2553 88.8637 59.828C88.8475 59.8599 88.8302 59.8907 88.8141 59.9214C88.0942 61.2696 87.0618 62.3888 85.8102 63.2121C85.1307 63.6584 84.3867 64.0171 83.5919 64.2767C83.5849 64.279 83.5792 64.2813 83.5722 64.2835C83.5526 64.2892 83.533 64.2961 83.5134 64.3029C81.1832 65.0396 78.7007 64.8369 76.5251 63.7313C76.2436 63.589 75.9714 63.433 75.7095 63.2645C73.9468 62.1338 72.6433 60.4532 71.9927 58.4503C71.2463 56.1502 71.4517 53.6999 72.5718 51.5524C73.6919 49.4061 75.5918 47.8154 77.922 47.0787C80.2523 46.342 82.7347 46.5447 84.9104 47.6503C85.1872 47.7904 85.456 47.9452 85.7156 48.1115C86.8403 48.8333 87.792 49.7887 88.4991 50.9148C88.543 50.9842 88.5995 51.04 88.6653 51.0822C88.836 51.1915 89.0632 51.2017 89.249 51.0879C89.5039 50.9307 89.5835 50.6005 89.4243 50.3477C88.633 49.0884 87.5671 48.0181 86.3097 47.2108C86.019 47.0241 85.719 46.8521 85.4087 46.695C82.9735 45.4584 80.1969 45.2318 77.5898 46.0562C74.9827 46.8806 72.8556 48.6557 71.6039 51.0617C70.3512 53.4642 70.1204 56.2049 70.9568 58.7794C71.6835 61.0202 73.1428 62.9001 75.1143 64.1651C75.4073 64.353 75.7118 64.5272 76.0267 64.6878C80.7414 67.0789 86.4804 65.5053 89.309 61.2092Z" fill="#0076BF"/>
<path d="M209.048 97.6696L193.224 113.646L212.205 108.642L209.048 97.6696Z" fill="#0376B9"/>
<path d="M303.202 104.283L213.291 108.59C210.981 108.701 209.048 106.882 209.048 104.6V68.0889C209.048 64.1207 212.241 60.8699 216.26 60.7469L297.294 58.2715C303.328 58.2715 308.22 63.1005 308.22 69.0567V99.0838C308.219 101.86 306.011 104.147 303.202 104.283Z" fill="#0376B9"/>
<path opacity="0.85" d="M215.979 107.124C214.546 107.124 213.196 106.591 212.15 105.607C211.04 104.562 210.428 103.151 210.428 101.636V68.7289C210.428 64.8507 213.579 61.7194 217.6 61.5987L296.059 59.2599C302.006 59.2599 306.839 63.9181 306.839 69.6421V98.0135C306.839 100.744 304.623 102.986 301.795 103.118L216.25 107.117C216.16 107.121 216.069 107.124 215.979 107.124ZM296.065 59.6448L217.612 61.9836C213.802 62.0974 210.818 65.0602 210.818 68.7289V101.636C210.818 103.044 211.387 104.356 212.419 105.328C213.452 106.301 214.805 106.8 216.232 106.732L301.776 102.733C304.396 102.611 306.449 100.538 306.449 98.0135V69.6432C306.448 64.1299 301.79 59.6448 296.065 59.6448Z" fill="white"/>
<path d="M295.802 66.3024L223.908 68.9588C223.202 68.985 222.646 69.4473 222.67 69.9882L222.697 70.6121C222.72 71.1473 223.302 71.5595 224 71.5344L295.898 68.9429C296.605 68.9178 297.161 68.4556 297.138 67.9136L297.108 67.2258C297.085 66.6873 296.501 66.2762 295.802 66.3024Z" fill="url(#paint5_linear_102_1379)"/>
<path d="M289.368 84.2679L217.473 86.9106C216.767 86.9368 216.212 87.4139 216.237 87.9741L216.264 88.6197C216.289 89.1743 216.871 89.6013 217.57 89.5762L289.468 87.0006C290.175 86.9756 290.731 86.4973 290.705 85.936L290.674 85.2232C290.651 84.6687 290.068 84.2417 289.368 84.2679Z" fill="url(#paint6_linear_102_1379)"/>
<path d="M297.768 91.7828L217.62 94.7695C216.833 94.7991 216.211 95.2841 216.237 95.85L216.265 96.5025C216.29 97.0627 216.937 97.4908 217.717 97.4635L297.867 94.544C298.655 94.5156 299.276 94.0305 299.252 93.4635L299.221 92.7438C299.196 92.1825 298.547 91.7544 297.768 91.7828Z" fill="url(#paint7_linear_102_1379)"/>
<path d="M256.385 76.894L217.199 78.0212C216.814 78.0326 216.526 78.5541 216.557 79.1827L216.593 79.908C216.624 80.5308 216.957 81.0238 217.337 81.0136L256.526 79.9615C256.912 79.9512 257.2 79.4297 257.168 78.8001L257.127 77.9996C257.099 77.3768 256.765 76.8826 256.385 76.894Z" fill="url(#paint8_linear_102_1379)"/>
<path d="M299.561 75.5572L262.524 76.6048C262.16 76.615 261.889 77.1354 261.922 77.765L261.958 78.4904C261.99 79.1132 262.306 79.6074 262.666 79.5983L299.708 78.6247C300.072 78.6156 300.342 78.0941 300.311 77.4644L300.271 76.664C300.237 76.0411 299.921 75.547 299.561 75.5572Z" fill="url(#paint9_linear_102_1379)"/>
<path d="M72.5271 305.661C72.5271 305.661 71.7865 309.803 71.4231 313.902C71.2812 315.504 72.5328 316.895 74.1605 316.962C79.6907 317.19 91.5218 317.632 95.7669 317.445C96.4048 317.417 96.8224 316.772 96.5859 316.186C96.3875 315.695 96.0057 315.298 95.52 315.077L75.9785 306.211L72.5271 305.661Z" fill="url(#paint10_linear_102_1379)"/>
<path d="M71.9189 303.228L72.5142 308.181C72.5142 308.181 75.9368 309.754 78.2751 307.983L76.8574 302.463L71.9189 303.228Z" fill="url(#paint11_linear_102_1379)"/>
<path d="M72.367 210.101C72.1097 211.395 70.9861 274.654 77.8372 303.003C77.9491 303.465 77.7115 303.942 77.265 304.122C76.2141 304.546 74.155 305.159 71.6864 305.241C70.9215 305.266 70.2363 304.777 70.0206 304.051C68.0618 297.475 58.6787 264.52 57.4547 233.04C56.0866 197.864 57.4547 231.842 57.4547 231.842L58.2565 210.099L72.367 210.101Z" fill="url(#paint12_linear_102_1379)"/>
<path d="M50.0474 307.821C50.0474 307.821 48.8673 309.912 47.7252 315.467C47.5187 316.471 48.2293 317.43 49.2618 317.531C51.0879 317.708 53.8991 317.936 56.1521 317.92C57.1903 317.913 58.0001 317.02 57.8755 316.004C57.6263 313.976 56.8488 310.649 54.4482 308.056L50.0474 307.821Z" fill="url(#paint13_linear_102_1379)"/>
<path d="M49.0103 301.451L50.4015 308.942C50.4015 308.942 51.7777 309.952 54.4989 309.22L53.8345 301.16L49.0103 301.451Z" fill="url(#paint14_linear_102_1379)"/>
<path d="M45.252 212.043C39.6491 245.418 46.4679 294.533 48.767 304.147C48.9077 304.736 49.3887 305.187 49.9932 305.286C51.0199 305.453 52.7099 305.591 54.3756 305.113C54.9501 304.947 55.3527 304.437 55.3758 303.848C55.6838 296.075 55.1289 248.364 60.35 229.508C60.6142 228.553 61.2059 227.719 62.0238 227.145L72.1568 220.035L72.9331 208.541L45.252 212.043Z" fill="url(#paint15_linear_102_1379)"/>
<path d="M80.9541 148.801C64.1639 148.528 45.6364 153.153 45.6364 153.153C40.631 181.979 44.7608 215.227 44.7608 215.227C57.7593 218.592 72.4235 213.17 72.4235 213.17C74.5841 201.121 84.664 167.213 84.664 167.213C92.8682 166.208 99.6259 163.872 105.192 160.783C100.947 155.926 98.9452 149.745 98.0766 146.093C92.1403 147.913 86.1325 148.886 80.9541 148.801Z" fill="url(#paint16_linear_102_1379)"/>
<path d="M130.551 124.389C128.901 122.423 126.813 123.353 126.813 123.353C124.342 133.655 111.387 142.008 98.0767 146.091C98.9465 149.745 100.947 155.926 105.192 160.782C127.283 148.524 130.551 124.389 130.551 124.389Z" fill="url(#paint17_linear_102_1379)"/>
<path d="M130.15 124.889C130.323 125.431 128.324 126.255 127.148 124.041C127.106 122.979 126.452 118.432 127.095 117.566C130.517 112.96 137.153 107.186 137.153 107.186C138.274 108.278 137.35 109.352 137.35 109.352L134.13 112.662C134.804 113.863 135.625 114.877 136.009 116.33C136.301 117.43 136.122 118.606 135.56 119.607C134.994 120.611 134.224 121.918 133.495 122.939C132.117 124.875 130.15 124.889 130.15 124.889Z" fill="url(#paint18_linear_102_1379)"/>
<path d="M132.724 114.81L129.791 117.264L128.87 119.708L131.485 122.572C131.485 122.572 132.364 117.722 133.018 116.674C133.672 115.625 133.333 115.117 132.724 114.81Z" fill="url(#paint19_linear_102_1379)"/>
<path d="M52.0766 169.2L45.6362 153.152C45.6362 153.152 29.9523 163.671 27.374 177.007C30.3375 177.222 35.7293 177.982 41.0081 180.614C42.1674 174.317 52.0766 169.2 52.0766 169.2Z" fill="url(#paint20_linear_102_1379)"/>
<path d="M65.7825 184.301C65.7825 184.301 48.1743 194.124 42.2323 185.737C40.9991 183.994 40.7038 182.264 41.0072 180.614C35.7285 177.984 30.3367 177.222 27.3731 177.007C26.5956 181.027 27.0063 185.303 29.4 189.625C39.8075 208.416 68.1115 188.587 68.1115 188.587L65.7825 184.301Z" fill="url(#paint21_linear_102_1379)"/>
<path d="M63.6665 196.728L73.2769 163.601C73.3865 163.226 73.7107 162.951 74.1052 162.906C75.8459 162.705 80.8916 162.143 86.7172 161.655C93.7344 161.069 101.882 160.595 106.751 160.998C107.443 161.055 107.862 161.778 107.554 162.393C104.786 167.922 93.3952 190.415 87.6919 197.783C87.5028 198.027 87.2109 198.17 86.8994 198.167L64.6021 197.962C63.9526 197.957 63.4877 197.344 63.6665 196.728Z" fill="#91B3FA"/>
<path d="M87.7125 158.784L94.6801 157.638C95.0515 157.577 95.3549 157.928 95.2373 158.279L94.5474 160.343C94.4874 160.523 94.3282 160.652 94.1391 160.677L87.4345 161.561C87.0873 161.607 86.8012 161.296 86.8819 160.96L87.3088 159.158C87.3537 158.965 87.5141 158.817 87.7125 158.784Z" fill="#BDD0FB"/>
<path d="M82.496 164.607L83.0705 161.655C83.1281 161.359 83.3762 161.136 83.6796 161.105L97.752 159.696C98.2261 159.648 98.6045 160.077 98.4937 160.534L97.5985 164.212C97.527 164.505 97.2675 164.718 96.9618 164.733L83.21 165.416C82.7613 165.439 82.4118 165.041 82.496 164.607Z" fill="#BDD0FB"/>
<path d="M65.9886 188.724C65.9886 188.724 64.6505 183.291 65.1903 181.363C65.7302 179.435 66.7765 176.956 70.2638 177.508C73.751 178.059 77.8646 179.508 77.8646 179.508C77.8646 179.508 77.657 182.019 75.0061 181.209L76.6499 182.464C76.6499 182.464 76.4146 184.475 74.1767 183.4L75.7052 185.065C75.7052 185.065 74.7442 186.716 73.0969 185.657C71.4496 184.599 70.6594 189.379 65.9886 188.724Z" fill="url(#paint22_linear_102_1379)"/>
<path d="M63.9467 135.346L58.6046 150.596C58.5157 150.849 58.6207 151.129 58.8583 151.257C60.3141 152.052 65.5617 154.35 71.8845 150.392C72.5432 149.98 72.9919 149.308 73.0911 148.544L74.8215 135.345H63.9467V135.346Z" fill="url(#paint23_linear_102_1379)"/>
<path d="M75.5715 121.224C75.5715 121.224 81.4386 132.124 80.6864 136.527C79.9343 140.93 72.6633 140.613 66.3141 137.038L61.8774 125.268L75.5715 121.224Z" fill="url(#paint24_linear_102_1379)"/>
<path d="M66.5944 131.258C66.8528 131.146 66.9474 130.834 66.7928 130.601C66.3222 129.893 65.442 128.447 65.1605 127.181C65.1605 127.181 64.1062 126.514 67.8449 125.631C71.5836 124.748 77.16 123.377 78.332 120.235C79.4752 117.172 76.4725 109.471 71.6828 115.608C71.5006 115.841 71.1441 115.847 70.9619 115.612C70.1763 114.604 68.1125 112.51 65.2459 113.779C62.5639 114.967 62.2616 116.907 62.2985 117.885C62.3089 118.173 62.0482 118.396 61.7621 118.343C60.4067 118.088 57.1525 117.868 55.6332 121.163C54.3816 123.878 55.1948 125.414 55.9354 126.165C56.1754 126.409 56.0704 126.81 55.7416 126.909C54.8499 127.179 53.6998 127.924 53.8152 129.985C53.9744 132.834 57.2021 132.584 58.1203 132.454C58.2714 132.432 58.4225 132.484 58.524 132.595C59.3119 133.456 62.8615 137.11 66.7029 137.551C67.0351 137.588 67.2935 137.265 67.1839 136.952L65.5216 132.181C65.4443 131.959 65.5516 131.716 65.7685 131.622L66.5944 131.258Z" fill="url(#paint25_linear_102_1379)"/>
<path d="M67.2623 131.935C67.2623 131.935 63.0852 129.106 62.7795 131.488C62.4738 133.87 66.5413 134.938 68.5554 134.05L67.2623 131.935Z" fill="url(#paint26_linear_102_1379)"/>
<defs>
<linearGradient id="paint0_linear_102_1379" x1="359.39" y1="411.904" x2="79.556" y2="59.8097" gradientUnits="userSpaceOnUse">
<stop stop-color="#92B5B8"/>
<stop offset="1" stop-color="#F9FFFF"/>
</linearGradient>
<linearGradient id="paint1_linear_102_1379" x1="564.433" y1="-216.145" x2="-23.199" y2="291.299" gradientUnits="userSpaceOnUse">
<stop stop-color="#92B5B8"/>
<stop offset="1" stop-color="#00788B"/>
</linearGradient>
<linearGradient id="paint2_linear_102_1379" x1="651.093" y1="-115.791" x2="63.4601" y2="391.654" gradientUnits="userSpaceOnUse">
<stop stop-color="#DA9C0C"/>
<stop offset="1" stop-color="#E8A712"/>
</linearGradient>
<linearGradient id="paint3_linear_102_1379" x1="9.75799" y1="259.685" x2="518.456" y2="-286.069" gradientUnits="userSpaceOnUse">
<stop stop-color="#92B5B8"/>
<stop offset="1" stop-color="#008C98"/>
</linearGradient>
<linearGradient id="paint4_linear_102_1379" x1="219.504" y1="222.198" x2="104.234" y2="351.242" gradientUnits="userSpaceOnUse">
<stop stop-color="#00788B"/>
<stop offset="1" stop-color="#C4E7EA"/>
</linearGradient>
<linearGradient id="paint5_linear_102_1379" x1="222.669" y1="68.9171" x2="297.138" y2="68.9171" gradientUnits="userSpaceOnUse">
<stop stop-color="#DAE3FE"/>
<stop offset="1" stop-color="#E9EFFD"/>
</linearGradient>
<linearGradient id="paint6_linear_102_1379" x1="216.236" y1="86.9221" x2="290.707" y2="86.9221" gradientUnits="userSpaceOnUse">
<stop stop-color="#DAE3FE"/>
<stop offset="1" stop-color="#E9EFFD"/>
</linearGradient>
<linearGradient id="paint7_linear_102_1379" x1="216.236" y1="94.6228" x2="299.252" y2="94.6228" gradientUnits="userSpaceOnUse">
<stop stop-color="#DAE3FE"/>
<stop offset="1" stop-color="#E9EFFD"/>
</linearGradient>
<linearGradient id="paint8_linear_102_1379" x1="216.556" y1="78.954" x2="257.172" y2="78.954" gradientUnits="userSpaceOnUse">
<stop stop-color="#DAE3FE"/>
<stop offset="1" stop-color="#E9EFFD"/>
</linearGradient>
<linearGradient id="paint9_linear_102_1379" x1="261.919" y1="77.5773" x2="300.312" y2="77.5773" gradientUnits="userSpaceOnUse">
<stop stop-color="#DAE3FE"/>
<stop offset="1" stop-color="#E9EFFD"/>
</linearGradient>
<linearGradient id="paint10_linear_102_1379" x1="95.1476" y1="299.938" x2="24.5949" y2="377.686" gradientUnits="userSpaceOnUse">
<stop stop-color="#09005D"/>
<stop offset="1" stop-color="#1A0F91"/>
</linearGradient>
<linearGradient id="paint11_linear_102_1379" x1="71.9194" y1="305.644" x2="78.2759" y2="305.644" gradientUnits="userSpaceOnUse">
<stop stop-color="#FEBBBA"/>
<stop offset="1" stop-color="#FF928E"/>
</linearGradient>
<linearGradient id="paint12_linear_102_1379" x1="100.783" y1="213.049" x2="40.9136" y2="295.258" gradientUnits="userSpaceOnUse">
<stop stop-color="#09005D"/>
<stop offset="1" stop-color="#1A0F91"/>
</linearGradient>
<linearGradient id="paint13_linear_102_1379" x1="79.0938" y1="285.37" x2="8.54095" y2="363.118" gradientUnits="userSpaceOnUse">
<stop stop-color="#09005D"/>
<stop offset="1" stop-color="#1A0F91"/>
</linearGradient>
<linearGradient id="paint14_linear_102_1379" x1="49.0107" y1="305.323" x2="54.499" y2="305.323" gradientUnits="userSpaceOnUse">
<stop stop-color="#FEBBBA"/>
<stop offset="1" stop-color="#FF928E"/>
</linearGradient>
<linearGradient id="paint15_linear_102_1379" x1="89.9299" y1="205.146" x2="30.0609" y2="287.355" gradientUnits="userSpaceOnUse">
<stop stop-color="#09005D"/>
<stop offset="1" stop-color="#1A0F91"/>
</linearGradient>
<linearGradient id="paint16_linear_102_1379" x1="68.399" y1="168.898" x2="163.596" y2="2.73236" gradientUnits="userSpaceOnUse">
<stop stop-color="#4F52FF"/>
<stop offset="1" stop-color="#4042E2"/>
</linearGradient>
<linearGradient id="paint17_linear_102_1379" x1="125.543" y1="104.612" x2="114.586" y2="136.33" gradientUnits="userSpaceOnUse">
<stop stop-color="#FEBBBA"/>
<stop offset="1" stop-color="#FF928E"/>
</linearGradient>
<linearGradient id="paint18_linear_102_1379" x1="135.129" y1="107.923" x2="124.172" y2="139.641" gradientUnits="userSpaceOnUse">
<stop stop-color="#FEBBBA"/>
<stop offset="1" stop-color="#FF928E"/>
</linearGradient>
<linearGradient id="paint19_linear_102_1379" x1="126.514" y1="128.131" x2="134.786" y2="111.224" gradientUnits="userSpaceOnUse">
<stop stop-color="#FEBBBA"/>
<stop offset="1" stop-color="#FF928E"/>
</linearGradient>
<linearGradient id="paint20_linear_102_1379" x1="48.2064" y1="157.33" x2="143.404" y2="-8.83593" gradientUnits="userSpaceOnUse">
<stop stop-color="#4F52FF"/>
<stop offset="1" stop-color="#4042E2"/>
</linearGradient>
<linearGradient id="paint21_linear_102_1379" x1="27.0166" y1="187.361" x2="68.113" y2="187.361" gradientUnits="userSpaceOnUse">
<stop stop-color="#FEBBBA"/>
<stop offset="1" stop-color="#FF928E"/>
</linearGradient>
<linearGradient id="paint22_linear_102_1379" x1="65.0614" y1="183.108" x2="77.8646" y2="183.108" gradientUnits="userSpaceOnUse">
<stop stop-color="#FEBBBA"/>
<stop offset="1" stop-color="#FF928E"/>
</linearGradient>
<linearGradient id="paint23_linear_102_1379" x1="58.5726" y1="143.996" x2="74.8207" y2="143.996" gradientUnits="userSpaceOnUse">
<stop stop-color="#FEBBBA"/>
<stop offset="1" stop-color="#FF928E"/>
</linearGradient>
<linearGradient id="paint24_linear_102_1379" x1="78.6853" y1="133.793" x2="60.9474" y2="122.832" gradientUnits="userSpaceOnUse">
<stop stop-color="#FEBBBA"/>
<stop offset="1" stop-color="#FF928E"/>
</linearGradient>
<linearGradient id="paint25_linear_102_1379" x1="51.3639" y1="111.7" x2="74.2116" y2="129.983" gradientUnits="userSpaceOnUse">
<stop stop-color="#09005D"/>
<stop offset="1" stop-color="#1A0F91"/>
</linearGradient>
<linearGradient id="paint26_linear_102_1379" x1="73.9929" y1="137.804" x2="58.0338" y2="127.942" gradientUnits="userSpaceOnUse">
<stop stop-color="#FEBBBA"/>
<stop offset="1" stop-color="#FF928E"/>
</linearGradient>
</defs>
</svg>
