<svg width="24" height="24" viewBox="0 0 24 24" fill="none" xmlns="http://www.w3.org/2000/svg">
<path d="M9 3H4C3.44772 3 3 3.34822 3 3.77778V9.22222C3 9.65178 3.44772 10 4 10H9C9.55228 10 10 9.65178 10 9.22222V3.77778C10 3.34822 9.55228 3 9 3Z" fill="#E8A712" stroke="#E8A712" stroke-width="2" stroke-linecap="round" stroke-linejoin="round"/>
<path d="M20 3H15C14.4477 3 14 3.6268 14 4.4V8.6C14 9.3732 14.4477 10 15 10H20C20.5523 10 21 9.3732 21 8.6V4.4C21 3.6268 20.5523 3 20 3Z" fill="#E8A712" stroke="#E8A712" stroke-width="2" stroke-linecap="round" stroke-linejoin="round"/>
<path d="M20 13H15C14.4477 13 14 13.3482 14 13.7778V19.2222C14 19.6518 14.4477 20 15 20H20C20.5523 20 21 19.6518 21 19.2222V13.7778C21 13.3482 20.5523 13 20 13Z" fill="#E8A712" stroke="#E8A712" stroke-width="2" stroke-linecap="round" stroke-linejoin="round"/>
<path d="M9 13H4C3.44772 13 3 13.6268 3 14.4V18.6C3 19.3732 3.44772 20 4 20H9C9.55228 20 10 19.3732 10 18.6V14.4C10 13.6268 9.55228 13 9 13Z" fill="#E8A712" stroke="#E8A712" stroke-width="2" stroke-linecap="round" stroke-linejoin="round"/>
</svg>
