<svg width="78" height="78" viewBox="0 0 78 78" fill="none" xmlns="http://www.w3.org/2000/svg">
<path opacity="0.4" d="M55.575 6.5H41.925C30.7125 6.5 26.1625 10.9525 26.0325 21.9375H36.075C49.725 21.9375 56.0625 28.275 56.0625 41.925V51.9675C67.0475 51.8375 71.5 47.2875 71.5 36.075V22.425C71.5 11.05 66.95 6.5 55.575 6.5Z" fill="#5DB4BB"/>
<path d="M36.075 26H22.425C11.05 26 6.5 30.55 6.5 41.925V55.575C6.5 66.95 11.05 71.5 22.425 71.5H36.075C47.45 71.5 52 66.95 52 55.575V41.925C52 30.55 47.45 26 36.075 26ZM39.9425 44.3625L27.885 56.42C27.43 56.875 26.845 57.1025 26.2275 57.1025C25.61 57.1025 25.025 56.875 24.57 56.42L18.525 50.375C17.615 49.465 17.615 48.0025 18.525 47.0925C19.435 46.1825 20.8975 46.1825 21.8075 47.0925L26.195 51.48L36.6275 41.0475C37.5375 40.1375 39 40.1375 39.91 41.0475C40.82 41.9575 40.8525 43.4525 39.9425 44.3625Z" fill="#5DB4BB"/>
</svg>
