<svg width="17" height="9" viewBox="0 0 17 9" fill="none" xmlns="http://www.w3.org/2000/svg">
<path d="M0.479618 0.260057C0.752487 0.0702001 1.10353 -0.021206 1.45626 0.00575159C1.80899 0.0327092 2.13483 0.175846 2.3628 0.403979L8.0254 6.11709L13.6818 0.404074C13.9089 0.175046 14.2349 0.0313311 14.588 0.00454612C14.9411 -0.0222388 15.2925 0.0700998 15.5648 0.261249C15.8371 0.452397 16.0081 0.726699 16.0401 1.02381C16.0721 1.32092 15.9625 1.6165 15.7354 1.84553L9.05314 8.5957C8.92779 8.72225 8.77089 8.82406 8.59357 8.89392C8.41624 8.96379 8.22281 9 8.02697 9C7.83113 9 7.63766 8.96379 7.46026 8.89392C7.28285 8.82406 7.12585 8.72225 7.00036 8.5957L0.310734 1.84543C0.0834956 1.61617 -0.0263522 1.32045 0.00531199 1.0232C0.0369762 0.72595 0.207564 0.451478 0.479618 0.260057Z" fill="#E8A712"/>
</svg>
