<svg width="23" height="27" viewBox="0 0 23 27" fill="none" xmlns="http://www.w3.org/2000/svg">
<path d="M21.8333 14.7089C21.8333 21.1672 17.1667 24.3964 11.62 26.2693C11.3296 26.3647 11.0141 26.3601 10.7267 26.2564C5.16667 24.3964 0.5 21.1672 0.5 14.7089V5.66725C0.5 5.32468 0.640476 4.99614 0.890525 4.7539C1.14057 4.51167 1.47971 4.37558 1.83333 4.37558C4.5 4.37558 7.83333 2.82558 10.1533 0.862247C10.4358 0.628454 10.7951 0.5 11.1667 0.5C11.5382 0.5 11.8975 0.628454 12.18 0.862247C14.5133 2.8385 17.8333 4.37558 20.5 4.37558C20.8536 4.37558 21.1928 4.51167 21.4428 4.7539C21.6929 4.99614 21.8333 5.32468 21.8333 5.66725V14.7089Z" stroke="#00BD13" stroke-linecap="round" stroke-linejoin="round"/>
</svg>
